<?xml version="1.0" standalone="no"?>
<!DOCTYPE svg PUBLIC "-//W3C//DTD SVG 20010904//EN"
 "http://www.w3.org/TR/2001/REC-SVG-20010904/DTD/svg10.dtd">
<svg version="1.0" xmlns="http://www.w3.org/2000/svg"
 width="1000.000000pt" height="1000.000000pt" viewBox="0 0 1000.000000 1000.000000"
 preserveAspectRatio="xMidYMid meet">
<metadata>
Created by potrace 1.11, written by Peter Selinger 2001-2013
</metadata>
<g transform="translate(0.000000,1000.000000) scale(0.100000,-0.100000)"
fill="#000000" stroke="none">
<path d="M0 7470 l0 -600 692 -2 691 -3 0 -2473 0 -2472 733 0 734 0 0 2475 0
2475 692 2 692 3 0 585 c1 322 0 591 -2 598 -3 9 -436 12 -2118 12 l-2114 0 0
-600z"/>
<path d="M5012 4995 l0 -3075 735 2 735 3 0 1208 c0 665 1 1207 3 1205 2 -2
153 -214 335 -473 183 -258 380 -537 439 -620 58 -82 255 -361 438 -620 183
-258 338 -477 345 -487 7 -9 45 -61 83 -117 l70 -100 899 -1 898 0 -34 43
c-19 23 -128 164 -243 312 -201 260 -296 383 -322 415 -7 8 -120 155 -253 325
-132 171 -284 366 -337 435 -54 68 -110 140 -125 160 -14 19 -48 63 -75 97
-26 34 -80 104 -120 155 -86 112 -338 437 -356 458 -6 9 -29 37 -51 63 -21 27
-37 49 -35 51 6 4 112 38 134 42 41 8 206 77 306 127 503 256 809 652 903
1172 25 134 28 174 31 340 4 310 -32 534 -128 785 -215 565 -675 939 -1343
1096 -66 15 -79 18 -141 29 -51 9 -177 25 -263 34 -47 5 -635 9 -1307 10
l-1221 1 0 -3075z m2008 1961 c47 -3 99 -9 115 -12 118 -20 157 -28 230 -49
192 -56 322 -143 426 -285 97 -134 139 -284 135 -490 -3 -149 -21 -228 -81
-355 -137 -292 -408 -448 -840 -482 -80 -6 -494 -10 -511 -5 -9 2 -12 219 -12
840 0 460 1 839 3 842 4 7 433 4 535 -4z"/>
</g>
</svg>
