<svg id="Layer_1" xmlns="http://www.w3.org/2000/svg" viewBox="0 0 1000 604">
  <style>
    .st0{fill:none;stroke:#bbb;stroke-linejoin:round}
  </style>
  <g id="layer0">
    <path class="st0" d="M625 251l-2-3-2-2-27 4-16 1-10 1h-17v1l1 1 3 6h1l2 3v2h1l2 2 6 2v2h-1l-2 5 3 3 2 4 1 1h3v1l2 40 1 9v11l14-1h11l44-4 14-2 1 2h1v2l-5 8 13-2v-2l2-1-3-2 3-2h-1l1-1v-4h-1l2-1v1h1v-3l3 1 1-2-1-2 1-5v-1l-1 1-4-1v-2l-3-4 1-1-2-8-3-1v-1l-4-2-1 1-1-2-5-3-3-2v-3l1-5 1-2v-2l1-3-7-2-1 2-2-1-1-3v-1l-1-3-2-2-4-3-3-2-3-3-1-2-1-1v-1l-1-3-1-7 1-1h-2zM403 58l-19-2-13-1-16-1-26-3-15-2-19-3-26-4-24-5-10-2-5 24 2 5 1 2 1 5-2 1 2 1 1 3 3 1v2l2 2 1 3 1 2v3l4 2v2l4 1-2 5-3 9 1 3-2 1-1 1-1 3 3 5 2-2h2l4-2v1l1 2v4l1 3 3 6-1 3 2 3h1l2 1 1 8 2 2 1-2h6l1 1 2-2 2 1h5v1l2-1 3 1 1-3 2-1 2 4 3 3 1-12 14 2h1l35 4 16 1 32 3 16 1 1-22 1-16 1-13 1-17 1-25h-12z"/>
    <path class="st0" d="M535 208l-3-2v-1h-1l-4-2h-2l-2-2-7 1-3-1-2 2h-2l-1-1-6-4h-54l-26-1h-14l-1 21-1 16v9h11l14 1h9v23h13l11 1h30l18-1h21l14-1 12-1h-1v-2l-2-3h-1l-3-6-1-1v-1l-1-1-2-2 1-1v-3l-1-2v-4l-1-4v-3l-3-2-1-3 1-2-2-3 1-1-3-2-1-3v-1l-2-3 1-3h-1l-2-1zM227 199l-4-1-7-1-12-2-18-4-4-1-16-3-9-2-12-3-8-2-4 14-12 54 9 13 21 30 19 26 21 29 9 13 2-4v-3l-1-4 1-3-1-5 1-1-1-3v-2l3-1 5 1 2 3h1l3-3 3-19 2-15 5-30 4-28 5-26 2-15-9-2zM933 63h-2l-1 2v5l1 3-1 4 3 3v2l-3 5-2 2-1 1 2 4v7l-1 3v3l2 12 1 1-1 2 1 2 1 2h1l9-2 10-4 4-6h2v-5l-2-1-1-1v-1l-4-3-1-4-10-23-6-14-1 1zM905 171v3l-3 6 2 2-1 5 1 2h2l4 4 5 3-2 1-4 6v1l-2 2-2 2v1l-1 3 1 1v3l2 2 1-1 5 2h5l1 2v4l1-1 1-6 2-3v-2l1-2 1-1-1-2 3-3v-3l-1-5 1-2-1-7-1-1-5-1v-4h2v-2l1-7h-1l-8-2-7-2-2 2zM402 335l-19-1-34-2-20-2-20-2-2 23-4 37-6 70 16 2 1-11 15 2 18 1-2-2 1-3 17 1 34 2 19 1 1-23 1-23 2-58 1-11-19-1z"/>
    <path class="st0" d="M922 182h-2v4l2-4zm26-22l-5 6-2 1-6 2v2h-2l-4 3v-1l-3 2v2l-3 5 1 1 6-3 6-5h1l2-2h2l2-3 3-3 1 1 5-5-1-1-3 2-2 3h-1l1-2 1-4 1-1zm-53-77l-5 2-11 3-6 6-5 10v2l-2 3-2 2v1l-2 2-1 3-3 12-11 3-19 5-7 7 3 3 2 5 1 1 1 1 2 3v1l-3 3v3l-3 2-1 2-5 5 2 6 17-5 17-4 21-7 17-5 2 3h4l2 4 1 2 5 1 1 1 7 2 8 2h1l-1 7 2-3 1-1 2-4-2-2 3-4-2-2-2-8-2-9-1-1-1-16-1-1-4-16-2-2h-2v-3l-3-6v-5l-1-2v-2l-3-4v-4h-1l-1-4-7 2zM895 353v2h1l-1-2zm30-57l1 1-1-1zm-7-11l1 1 2 3 1 1 2 4v-1l-3-5-3-5v2zm-2 0h2l-1-2-1 1h-1l1 1zm-102 24v5l-3 3-1 4h-3l-3 2-2 3-1 1-2-2-5 4 1 2-1 2h-2l-7 7-5 1-2 1-2 3 1 3-1 1-4 1v6l13-3 10-2 5-3h1l6-5h2l23-4 1 3 2-2 3 3v3l21-5 14 9 11 7 7-3h3l2-8 2-4 3-4 5-6 4-2 4-1 1-2 2 1 1-3 2-4-1-1-1 2-1-2-1 1-3 1-1 3-3-1-2-2 4 2 3-4v-2h-1v-2h2l-1-2h-4v-1h2l-1-3h1v2h8l2-2 1-4 3-3v-2l-2-4-2-1-2 3 1 5-1-1-2-6h-2l-3 2h-1l-4 2-1-2h2l2-1 2-3h1l3-2 2-2h2l-3-3-1-1-2-2h-2l-13 3v1l-29 8-18 4-14 4-19 3-6 1zM506 59l-22 1-38-1h-19l-12-1-1 25-1 17-1 13-1 16h17l16 1h71l17-1-1-2v-6l-2-3-2-5v-6l-1-2v-3l-1-7v-4l-1-4-2-2-1-4-1-2 1-4-1-2v-5l1-2-2-3-1-4h-12z"/>
    <path class="st0" d="M829 156l-17 15-18 9-6 6-11 11-4 1-8-3-2-4v-6l1-1-2 3v6l-1 2-2 4-9 2-13 3 1 8 3 14 3 17 3 21 1-1 3 1 2-2 2 2h1l3 4 3 1 3-1 3 2 2 1 1-3 7 1 2-3 2-1 4 4 3 1v1h1l4-2v-2l2-2-2-4 2-6 3 2 2-1-1-5 1-2 2-1v-2l2-2 1 2 3-2 3-6 1-1 1-2-1-1v-4h1v-4l1-6-1-3-2-3 1-1h1l-2-11-5-20 4-2 7-7 5-5 1-2 3-2v-3l3-3v-1l-2-3 1 2zm-69 43h-1 1zm3-9zm0 0v-3 3zM567 334l-31 2h-18l-15 1h-65l-17-1-1 11 16 1 30 1h10v44h1l5 4 2 1v-1h4v-1l3 2 1 3h4l2 1 3 1 1-1 2 1 1 1 3-2 3 1 2 3h3v2l1 1 2-1 2-2 2 2h5l2-1 1 2-1 2 2 1v-2l4-4v2l4 1v-2h2v1l3 2 2 2 1-2h2l5-3 2 1 4-3 1 2 5-1 1-2 3 2h2l1 2 5 2h1l2 2 1-1-1-13v-28l-2-8-4-17v-11h-9zM105 70l-2-1v-1l-2 1-1-2-1 5-1 1-1 4v2l-2 4v3l-5 10-1 2-1 4-5 12-3 7-3 5-3 4-2 3-2 5-2 2v2l1 3v2l-2 2-1 5v3l2 3 14 5 16 4 22 7 17 4 8 2 12 3 9 2 16 3 4 1 3-14 6-27 2-4v-2l1-2-4-3 1-5 4-5 2-1 2-3 1-2 2-2 2-4 4-6-1-4-2-2-2-2v-2l-7-2-25-6-1 1-8-1h-1l-2 1-5-1-4 2-4-1-2-2-5 2-3-1h-1l-1-1-4-3-4-1-2 1-6 1-6-3-1-1v-4l1-7-2-2-2-1h-2l-3-4-2 2zm3 0l1 2-1-1v-1zm13 20v-1 1z"/>
    <path class="st0" d="M811 180h-1l-1 1-2 1 5 20 2 11 4 15 1 6 18-5 17-4 19-6 13-4 10-2 4-2 1-2 2-2 2 1 2-2 2-2v-1l4-6 2-1-5-3-4-4h-2l-1-2 1-5-2-2 3-6v-3l2-2-1-1-5-1-1-2-2-4h-4l-2-3-17 5-21 7-17 4-17 5-2-6-7 7zM962 146l-2-2 1 3 1-1zm0 0l1 1 1-1-2-4h-1l1 4zm-13-8l3 9 2 5-1 1h3l3-3-1-6 3-1-1-1-2-2v-1l-5-2-4 1zM849 409zm2-6l1 3 1-2-2-1zm1-5v1l1 4 3-4v-1l-3 1-1-1zm-2-1l-1 2 2 3 1-2-2-3zm7-4v3l1 1 2-3-3-1zm4-3l-1 1-1 2 2-3zm0-1l1 2-1 3 2-1-2-4zm-66-38v2l-4 5 1 1 3 1 3 2h3l3 4 2 3 2 2 1 2 6 2 3 4h1l5 3v2l4 2v2l5 2 1 1 4 8 3 1 2 3 2 6h3l2-4 1-2-2-2v-2l1-2 2 1 3-1 3-4 3-4 4 2 1-3 1-2 3-2-1-1 2-2h1l4-5-1-2 1-3 3-7 2-3 3-3v-1l-11-7-14-9-21 5v-3l-3-3-2 2-1-3-23 4h-2l-6 5h-1l-5 3zM515 130h-71l-16-1h-17l-1 22-1 18v11l-1 17h14l26 1h54l6 4 1 1h2l2-2 3 1 7-1 2 2h2l4 2h1v1l3 2 2 1-2-4v-4l1-3-1-2 1-2v-2h-2l1-4-2-2 3-1-1-8-1-33-1-2h-3l-3-5v-1l3-2 1-2 1-3-17 1zM778 317l-29 5-5 1-6 1-12 1-10 2-15 2v-1l-4 1 1 3v1l-24 3h-3v4l-1 1h1l-3 2 3 2-2 1v3l1 1-2 1 1 1-3 2-1 2 2 1-3 3-2 4v2l2 1-2 3v2h-1l-1 1 19-3 7-1 14-1v-1l11-1 13-2 11-2 13-2 5-1 13-2 6-1v-6l4-1 1-1-1-3 2-3 2-1 5-1 7-7h2l1-2-1-2 5-4 2 2 1-1 2-3 3-2h3l1-4 3-3v-5l-5 1-15 4-9 1-7 2zM550 533l-1 2-5 3 6-3v-2zm51-32l-2-3 2-2 2-3v-6l-1-1v-5l2-3 1-6-1-2h2l-2-4-3-6h-1l-2-8-4-4-1-11-1-12-1-13-3 1h-3l-2-2-1 1-2-2h-1l-5-2-1-2h-2l-3-2-1 2-5 1-1-2-4 3-2-1-5 3h-2l-1 2-2-2-3-2v-1h-2v2l-4-1v-2l-4 4v2l-2-1 1-2-1-2-2 1h-5l-2-2-2 2-2 1-1-1v-2h-3l-2-3-3-1-3 2-1-1-2-1-1 1-3-1-2-1h-4l-1-3-3-2v1h-4v1l-2-1-5-4h-1v-44h-10l-30-1-16-1-2 58-1 23-1 23-19-1-34-2-17-1-1 3 2 2 1 1 2 1 3 6 3 2 2 1 3 4 4 3v2l5 4h2l6 6 1 4 2 4v4l1 4 2 4v1l4 4h2l2 3 3 2 4 2 2 1 3 1 2 3 4 1h3l2-4 2-1 1-3 1-4 3-4 3-2 2 1 2-3 4 2h7l2 1h5l2 3h2v3l4 1 1 2 4 3v2l2 1 1 4 2 3 1 4 2 1v1l1 3 3 5 2 1 4 6 1 2 1 1 2 3h3l1 2 1 2-1 3 2 4v3l3 4 3 5v2l1 1 1 2 5 1 5 2 3 1 1 2 4 2h3l4-1 4 1 4 3 3 1v-1l3-2v-2h-1l-1-2-1-5-1-2-2-8v-3l-2 1 1-4 2-1v-3l-3 1-1-1v-1l2-1h2l3-8-2-1-1-2-2-1h5l1 1 3-4-1-2-1 1-1-1 3-3 1 2h2l3-3-1-1v-3h2l1 2 5-3-3-3-2-2 1-1v1l3 1h6l3-1h1l1-1 3-1 2-1 6-3 3-3 1-4 5-4v-2l-3-3 1-3 2 1 1-3 3 1-1 5 4-2 1 2 10-5h3zM278 207l-10-1-17-2-11-2-4-1-2 15-5 26-4 28-5 30-2 15 11 2 25 4 15 2 23 3 17 2 1-12 2-15v-2l6-53 1-10-22-2-13-2 1-11 2-12-9-2zM932 126l-1-2-1-2 1-2-1-1-2-12v-3l1-3v-7l-2-4 1-1 2-2 3-5v-2l-3-3 1-4-1-3-12 5-5 2-11 4 1 4h1v4l3 4v2l1 2v5l3 6v3h2l2 2 4 16 1 1 13-4h-1z"/>
    <path class="st0" d="M912 251l2 2-2 2-1 5v6l1 3 1 2v-5l5-16-1-1 1-1-5 1v1l-1 1zm-43-16l-11-5 1 2-1 3v2l-3 6-1 1-1 4-3-1-2 10-1 1h-3l-2-2-2-1v6l-1 2-1 3-1 4-2 4-2 5 2 1-2 2 1 1-3 2v-1l-4 4-2-1v2l-1 1-5 3-3-2-1 2-2 2h-2l-2-1h-1l-2-2-2-3-5 8-4 2-2 2v2l-2 2v2l-3 2-1 3-6 3-3 2 7-2 9-1 15-4 5-1 6-1 19-3 14-4 18-4 29-8v-1l13-3 1-1h2l-1-2 1-2 2 3-3-4-2-4-1 1h-5l1 2-3 1v-2l-4-1v-2l4 1 1 2 2-2v-2l-4-2 1-2-2-1 1-1 2 1v-3l-2-1v-1h-4l-4-4h2l2 3 4-1-1-4-8-6-4 1-2-1-2-2v-1l-3 2h-2l-1-3 1-4h1l2-3-1-3-1-1h-1l-2-1-2-1h-3l-1-3-2-1h-3v5zM121 89v1-1zm14-65l-4 4 2 2-1 3 2 3h2v-2l-2-3-1-4h3l-1-3zm-6-7l-1 3 2 1v-2l-1-2zm4-1l-2 2 1 1 3-1-2-2zm70 12l-12-3-32-8-11-3-11-4-2 2 1 3 3 2-1 2 1 2-2 1v2l-2-2-1 2 3 3v6l1 2-2 1-3 6 1 2h-2v5h-3l-2 3-2 1-4-2 2-3 1 3 1-2 3 1 2-6v-4h2l1-3-3 1-2 2-3 1 2-4 4-1-2-6h-2l-1-2h-5l-4-3-5-2-4-4-3-3-3 4v6l2 5v4l-1 5v5l-1 5 1-2v4l-1-1v4l2 2-1 1v2l-2 4v3l4 1h2l3 4h2l2 1 2 2-1 7v4l1 1 6 3 6-1 2-1 4 1 4 3 1 1h1l3 1 5-2 2 2 4 1 4-2 5 1 2-1h1l8 1 1-1 25 6 7 2v-2l1-2-1-5v-2l5-21 8-37-17-4z"/>
    <path class="st0" d="M813 213l-1 1 2 3 1 3-1 6v4h-1v4l1 1-1 2-1 1-3 6-3 2-1-2-2 2v2l-2 1-1 2 1 5-2 1-3-2-2 6 2 4-2 2v2l-4 2h-1l1 4v3l3 3v1l4 3 1 2 2 1 3 1h1l2 3 2 2h1l2 1h2l2-2 1-2 3 2 5-3 1-1v-2l2 1 4-4v1l3-2-1-1 2-2-2-1 2-5 2-4 1-4 1-3 1-2v-6l2 1 2 2h3l1-1 2-10 3 1 1-4 1-1 3-6v-2l1-3-1-2 11 5v-6l-4-4 1-1-3 1-4-1-1 2h-1l-2 3-3 1-3-1-2 4h-2l-3 5-2 3-3-12-18 5-1-6-4-15h-1zM603 106h-3v2h-2l2 14-6 3-1 2-1 2-1 1v4h2l2 17-1 2 5 4 3-1 3 3 2 1 5 5 4 2 2 1 4 5v3l1 3 1 3 2 2-1 3 3 9 2 1 4 1 1 3 10-2 11-1 11-1 16-2v-8l-2-1v-2l-1-1v-2l-1-4 1-5v-2l1-3-1-5 1-5 1-3-1-2 1-5 1-4v-3l-2-1-3 2-1 4-3 2v1h-1v-4l1-4 1-2 2-1 1-3h-2v-5l-1-1-2 1-1-2 1-5-4-2-2-1v-1l-7-3-2 1h-4l-4-2-16-2-3-4-3-1v-1 1l-2-1-3-1-1 1-1-1v-6h-3l-2 2h-1l-2 2-7 3-3 1v-1zm84 24v-2l-2 1v2l-2 1v3l-2 3 1 2h2v-1l1-5 1-1v-1l1-2zM394 150l-32-3-16-1-35-4h-1l-14-2-1 12-3 17-1 10-2 18-2 12-2 12-1 11 13 2 22 2 11 1 16 2 25 2 19 1 14 1h2v-9l1-16 1-21 1-17v-11l1-18-16-1zM735 362l-11 2-13 2-11 1v1l1 1 1 1v26l1 18v25l6 34h5v-4l2-4 2 3v4l4 2 2 1 2-1 2-4v-6l-3-1-3-3 1-3 23-3 12-2 16-3-1-2-2-2v-8l-2-3-1-4 1-4v-2l3-4-3-1 1-3-3-3-2-4-1-2-11-34-3-9-2-4-13 2zM292 326l-23-3-15-2-25-4-11-2-3 19-3 3h-1l-2-3-5-1-3 1v2l1 3-1 1 1 5-1 3 1 4v3l-2 4-1 3 3 4 1 6 1 1 3 3-3 3-3 1-1 2-2 2v5l-1 3-3 3h-2l1 3-1 4v2h3l1 2-1 3-1 2h-4l-2 2-1 3 35 19 35 18 18 3 22 2 6-70 4-37 2-23-17-2zM656 350l5-8v-2h-1l-1-2-14 2-44 4h-11l-14 1 4 17 2 8v28l1 13 2 2h3l3-1 1 13 9-1 19-1 9-1 19-2 1-1v-4l-2-4 1-1-2-3h1l-1-2 1-3h2l-1-2 1-1-1-1 1-2h2v-1l-1-1 2-1v-3h1v-2l3-1v-5l1-1 1-4 2-1 1-1-1-2 1-1h1v-2l2-3-2-1v-2l2-4 3-3-2-1 1-2 3-2-1-1 2-1-1-1v-1l-13 2z"/>
    <path class="st0" d="M117 389l1 4 2 2 1-1-4-5zm2-10l2 2v2l3 1-1-3-4-2zm-24-19h-4l2 3 2-1v-2zm2 0l1 2 2 1h4l-7-3zm23-184l-22-7-16-4-14-5-1 3-2 2 2 1v4l-1 4-2 4-1 5-2 3-2 3-2 1-3 4v5l4 7 2 5v3l-1 4-2 4v8l-1 2 4 6 1 4 2 3 1 4 2 3-3 4h1l2 1 5 6 2-7h1l4 4 2-2 1 2h-3l-1-1h-3l-1 2 1 1-1 2 3 4v4h-2v-1l-2-2v-6l-2 1v2l-1 3v1l1 4-1 2 1 4 3 5h3l1 4-1 3-1 1h-1l-1 3v4l4 8 1 1v2l2 3v3l2 2 2 4 2 1 1 3-2 1 1 2 3 2v1l-1 4v2l-1 2 1 1-1 4 2 1v2l6 1h3l2 2 5 1 2 2 3 3 1 3 7 5h5l1 3 1 2-1 2 2 2h4l2 4 8 9 2 4v9l2 2v2l-1 1 29 3 18 2h4l1-2 1-3-1-2h-3v-2l1-4-1-3h2l3-3 1-3v-5l2-2 1-2 3-1 3-3-3-3-1-1-1-6-3-4 1-3-9-13-21-29-19-26-21-30-9-13 12-54 4-14-17-4zM319 236l-1 10-6 53v2l-2 15-1 12 20 2 20 2 34 2 19 1 19 1 17 1 1-18v-30l1-12v-33h-9l-14-1h-13l-14-1-19-1-25-2-16-2-11-1zM949 138l-15 5-12 4 2 9 2 8 2 2-3 4 2 2 2-3 1-1 4-3 2-3 9-4 3-2h1l4-3 1-1-2-5-3-9zM905 208l-2-1-2 2-1 2 3 9 6 19 10-2 1-1v-2l-2-1v-4h-2l-3-2-3-3v-3l-2-2-1-1-2-2v-3l-1-1 1-3v-1zM882 236h1l1 1v1l2-2-3-2-1 2zM884 569l2-1 3-5 1-4-1 1v1l-3 7-2 1zm-38-33l2 4 1-3-3-1zm-72-87l-16 3-12 2-23 3-1 3 3 3 3 1v5l2 1-1 2 2-1 2-5 1 1v1l2-1 2 1-1 1 7-1 3-3 1 1 3-1h2l1 2h-7l-1 1h4l5 1 4 1 3 2-1-3h-1v-1h1l2 1-1 1 2 2 5 3 3 2v3l7-2 2-2v1l6-5 2-1 2 1v-1h-2l1-3 2-1 4-1 9 3 2 4 3 1 1 3 3 1 4 3 1 3 5-1 3 4v2l1 3h1v5l-1 7v8l3 2 2 1v-3l-3-2 2-2 2 4h2l-1-3 2 1v1l-1 2-3 7 2 1 4 8 3 4 3-3 3 1v4l2 5h3l3 8 7 4 2-1 1 1 1 2h1l2 5 3 3 3-1 2 2v1h-2l-3-2-1 3 3 1 4-2h3l2-1 3-1 3-5-1-2v-3l1-4v-2l1-1v-6l-1-9-1-5-1-4-3-5h-1l-3-5-2-5-8-11-5-7 2-1v2l1 3h1v-3l1-3-3-1-8-9-3-7-6-10-6-13v-4h-3l-7-1-2 2v3l1 1v5l-2 1-1-1-1-4-52 7-2-1v-3l-2-2z"/>
    <path class="st0" d="M844 428l-1 2h2l-1-2zm2-6l-2 2 1 2 1-4zm0-7l-1 1 1 2 2-3h-2zm1-6l1 3 1-1-2-2zm-52-58l-10 2-13 3-6 1-13 2-5 1 2 4 3 9 11 34 1 2 2 4 3 3-1 3 3 1-3 4v2l-1 4 1 4 2 3v8l2 2 1 2 2 2v3l2 1 52-7 1 4 1 1 2-1v-5l-1-1v-3l2-2 7 1h1l1-1v-4l-2-1 1-2-1-3 2-4-1-2 4-5-1-7 1 1 1-2-1-3h1-3l-2-6-2-3-3-1-4-8-1-1-5-2v-2l-4-2v-2l-5-3h-1l-3-4-6-2-1-2-2-2-2-3-3-4h-3l-3-2-3-1-1-1 4-5v-2zM292 149l-2-4-2 1-1 3-3-1-2 1v-1h-5l-2-1-2 2-1-1h-6l-1 2-2-2-1-8-2-1h-1l-2-3 1-3-3-6-1-3v-4l-1-2v-1l-4 2h-2l-2 2-3-5 1-3 1-1 2-1-1-3 3-9 2-5-4-1v-2l-4-2v-3l-1-2-1-3-2-2v-2l-3-1-1-3-2-1 2-1-1-5-1-2-2-5 5-24-15-3-8 37-5 21v2l1 5-1 2v4l2 2 2 2 1 4-4 6-2 4-2 2-1 2-2 3-2 1-4 5-1 5 4 3-1 2v2l-2 4-6 27-3 14 18 4 12 2 7 1 4 1 9 2 4 1 11 2 17 2 10 1 9 2 2-12 2-18 1-10 3-17-3-3zM683 195l-16 2-11 1-11 1-10 2 5 3v2l5 3v7l-2 1v4l-2 2h-2l-1 2h-4l-3 2-1 3 4 4v4l-2 2v3l-1 2-4 2 1 4h-1l-1 1 1 7 1 3v1l1 1 1 2 3 3 3 2 4 3 2 2 1 3v1l1 3 2 1 1-2 7 2-1 3v2l-1 2-1 5v3l3 2 5 3 1 2 1-1 4 2v1l3 1 2 8-1 1 3 4v2l4 1 1-1-1-1 4-5 4 2 5 1v-2l-2-3 1-3 3-2 3-1-1-3 1-3 1-1-1-6 1-1v-5h1l2-3 1-6 2-2-1-3v-2l-3-4 1-2-1-2 1-1-2-18-1-10-4-27-2-1-2-6-2-1-1-3-1-5z"/>
    <path class="st0" d="M737 203l-13 2-15 3-7 1-3 2-3 2h-3l-2-1v-1l4 27 1 10 2 18-1 1 1 2-1 2 3 4v2l1 3-2 2-1 6-2 3h-1v5l-1 1 1 6h1l1-1-1-1 4-1 1 1h1v-3l1 1 2-1 6 3 1-1v-2l4-3 2 2 3-1v-3l4-3v2l2 1 4-1v-4l2-2h1l1-2 1-3 1-1 2-2-1-3v-1l3-1 2 1 2-2 3-1 1-2-2-1v-2l-1-1 1-1-3-21-3-17-3-14-1-8v-1zM615 180l-26 2-20 2h-14l-19 1-3 1 2 2-1 4h2v2l-1 2 1 2-1 3v4l2 4h1l-1 3 2 3v1l1 3 3 2-1 1 2 3-1 2 1 3 3 2v3l1 4v4l1 2v3l-1 1 2 2 1 1h17l10-1 16-1 27-4 2 2 2 3h3l-1-4 4-2 1-2v-3l2-2v-4l-4-4 1-3 3-2h4l1-2h2l2-2v-4l2-1v-7l-5-3v-2l-5-3-1-3-4-1-2-1-3-9 1-3-2-2-1-3-8 1zM547 266l-14 1h-21l-18 1h-30l-11-1h-13v10l-1 12v30l-1 18h65l15-1h18l31-2h9l-1-9-2-40v-1h-3l-1-1-2-4-3-3 2-5h1v-2l-6-2-2-2-12 1z"/>
    <path class="st0" d="M671 336h1v-1l-2 1h1zm118-66l-3-1-4-4-2 1-2 3-7-1-1 3-2-1-3-2-3 1-3-1-3-4h-1l-2-2-2 2-3-1-1 1-1 1 1 1v2l2 1-1 2-3 1-2 2-2-1-3 1v1l1 3-2 2-1 1-1 3-1 2h-1l-2 2v4l-4 1-2-1v-2l-4 3v3l-3 1-2-2-4 3v2l-1 1-6-3-2 1-1-1v3h-1l-1-1-4 1 1 1-1 1h-1l-1 1-1 3 1 3-3 1-3 2-1 3 2 3v2l-5-1-4-2-4 5 1 1v1l-1 5 1 2-1 2-3-1v3h1l24-3v-1l-1-3 4-1v1l15-2 10-2 12-1 6-1 5-1 29-5 3-2 6-3 1-3 3-2v-2l2-2v-2l2-2 4-2 5-8h-1l-3-1-2-1-1-2-4-3v-1l-3-3v-3l-1-4v-1zM654 504l-1 1 1 1 3 1-3-3zm-14-5l-2 1 4 2h1v-2l-3-1zm8-79l-19 2-9 1-19 1-9 1 1 12 1 11 4 4 2 8h1l3 6 2 4h-2l1 2-1 6-2 3v5l1 1v6l-2 3-2 2 2 3 3-2 4-1h9l15 4 4-2-2-3h2l4-3 3 2h3v2h1l1 2 5 1 4 3v3h3l2 1 1-1 2 1 2-5h2l1-1 2 1 3 5 3-2v-7l-4-1 2-1 3 2 1-1h3l1 2 1-2 1 1 3 2 2 3 3-1 1 2 2 2 1-2v-2l-3-3-1 2-4-3h-1l-2-2h-2v-3l1-3h3l1-3-2-2h-2v2l-1 1-4-2v-2l3-1 1-2 2-1-2-1-2-5-2-1-2-3v-3l1-1 1-4-38 4 1-1-1-2v-1l-1-2h2v-6l2-1 1-7 3-3 2-4h-2l3-2v-2l1-1h-1v-2l-3-1 1-2-2-2 2-1-2-1v-2l1-2h-3l1-2zM983 64l-1 3 3 1-1-1 2-2-2-2-1 1zm-49-2l6 14 10 23 1 4 4 3v2l2 1 1-1 1-7h1v-5l2-1-2-3v-2l2-3 5 1-2-2 1-3 2 2 2-2v-2l1-1 2 1 2-4-1-1v-5l-1-3 1-1 2 3 1-1h3l-1-2 2-2 1-2 2-2 2 3 3-2-1-4h3l2-1v-3l1 1 4-4 1-4-2-1v-1l-4-4h-2l-1 1-3-2v-2l-1-4-1-1h-6l-2-5-10-25h-2l-2-1-6-2-1 1v1l-3 1-3 5-3-1-1-3h-3l-5 21 2 6-2 3v4h1v2l1 3 1 1-1 3 1 1-3 4-1 6 1 2h-2l-2 2zM907 239v9l2-1 1 2-1 3h1l1-1 2-1v-1l5-1v-3l2-4v-2l-1-2-10 2h-2zm-70-10l3 12 2-3 3-5h2l2-4 3 1 3-1 2-3h1l1-2 4 1 3-1-1 1 4 4v1h3l2 1 1 3h3l2 1 2 1 1-2 3 2-2 2 1 3-2 3-1 3 2 2 3-3 2 3 1-2 1 3 4-1 3 2v-1l2 2 1-2-3-3v-2l-3-2-2-6v-2l-1-2 2-3-2-1v-2l1-5 1 1 2-4v-2h1l1 2-2 4-1 4h3l-1 3 1 3-1 1-1 2 6 2-1 1h-3l2 2-2 1 5 3 2-2 1 1 1-2v-2l-4-20-3-9-4 2-10 2-13 4-19 6-17 4zM982 142l1 1-1 2 2-1-2-2zm-10 1l-1 2v2l5-2-4-2zm2-16l2 1 2 3-2 5-6 1 1 2v3l2-1 1-2 6-4v-3l-1-3-2-2h-3zm-41-1l-13 4 1 16 1 1 12-4 15-5 4-1 5 2v1l2 2h2l2 4v-1l2-3h1l3-9-4-1 1-2-3-3-4 1-1-1v-2l1-3v-1l2-2 1-2-1-1-1 2-3-3v-1h-2l-4 6-10 4-9 2zM759 199zm8-16h-2l-1 1 3-1zm2-6l2-1v-10l-2-2-3-9-3-6-1-2-3-2-2-1-1 1-1 1-2 1-2 2-1 5h-1l-2 3-4-1-1-1v-3l1-3 2-1 2-2v-4l2-3-1-6v-2l-1-4-3-2v-2l2-1v-2l-2-1v-1l-2-1-6-1-2-1h-2l-3-3h-1l-3 1-5-2-3 2-1 2v3l2 3h-3l-2 2-1 3 1 2v4l-1 4-2-1v-5l-1-3-3 6h-1l-1 1-1 1v3l-1 1-1 1 1 3v4l-2 6-1 2 1 3 1 3-1 4 5 8 3 7 1 5v6l-1 5-1 3-2 7-2 2-1 1 7-1 15-3 13-2v1l13-3 9-2 1-2 1-4 1-1v-5l1-2 3-3v-4l1-1-1-1 1-2 2 1v2zm-32-77h-1v1l-3 2 2 1h3l1-2-2-2zm-5 1l-3-2 3 3v-1zm-4-5l-1-1v-3l-4 1-2 1-1 2-1-2-3 2-4-1v-6l-3 1-5 3h-6l-2 1h-1l-2 2-3 2-2 3-2-1-2 1-2-1-3 1h-2l-2-2h-1l-3-4-3-1h-7l-3 4v-5l-2-1v-1l-2-1-1-2-3 3-1 3h-2l-1 2-3 2-6 2-4 4-5 2v1l3 1 3 4 16 2 4 2h4l2-1 7 3v1l2 1 4 2-1 5 1 2 2-1 1 1v5h2v-2l3-6v-2l1-4 3-1 2-1 1-3h2l1-1 1 2h-1l-1 3h1l1-3 3-1 1-4 9-2 1-3 4-1 5 1 5 3 1-5 5 1 5-1h2v-1l-3-1v-2h-3l-1-4h2zm35 89l1-1-1 1zm-75-85l-1-2v3l1-1zm-20-18l-2-2-4 1-3 1-2 2-3 4v2h2l2 3 2-5 5-6h3zm-17-12l1-3h-1l-3 2-4 3-1 1 1 2 3-1v-2l4-2zm58 46v-2h-1l-1 3 2-1z"/>
    <path class="st0" d="M633 72v1l-5-2-3 1h-6l-2-3-4 3-2 2h-2l-5-1v-1h-3l-2-1-1-3-3 1v2l-1 1-3-5h-2v-2h-2l-3-1h-5l-3 1v1l-5 1-1-2-6-1v-1l-4 1-3-3v-1l-3-10-2-1h-3l1 8-25 2h-7l1 4 2 3-1 2v5l1 2-1 4 1 2 1 4 2 2 1 4v4l1 7v3l1 2v6l2 5 2 3v6l1 2-1 3-1 2-3 2v1l3 5h3l1 2 1 33 1 8 19-1h14l20-2 26-2 8-1-1-3v-3l-4-5-2-1-4-2-5-5-2-1-3-3-3 1-5-4 1-2-2-17h-2v-4l1-1 1-2 1-2 6-3-2-14h2v-2h3-1l-1-2 4-4 5-4 6-9 3-4 4-2 7-3 5-4 1-2h1-4zM686 369l-7 1-19 3 1 2-1 1-2 1-1 4-1 1v5l-3 1v2h-1v3l-2 1 1 1v1h-2l-1 2 1 1-1 1 1 2h-2l-1 3 1 2h-1l2 3-1 1 2 4v4l-1 1-1 2h3l-1 2v2l2 1-2 1 2 2-1 2 3 1v2h1l-1 1v2l-3 2h2l-2 4-3 3-1 7-2 1v6h-2l1 2v1l1 2-1 1 38-4-1 4-1 1v3l2 3 2 1 2 5 2 1h1l4-3 5-3h5l4-1 3-1-6-34v-25l-1-18v-26l-1-1-1-1-14 1z"/>
  </g>
  <g id="nZ2iWP.tif">
    <path d="M307.7 143.4v2.5c.2 0 .3.1.4.1.4-.2.8-.4 1.3-.6.1.2.3.4.5.6l2.1 2.3c.2.2.4.4.6.7-.1.8-.3 1.7-.5 3 .7-.4 1.1-.6 1.5-.8 1 .7 2 1.4 3.2 2.2.1 1.7-.8 3.1-1.5 4.8v3.2c-.2.2-.5.3-.7.5v1.3c.7 1.5 2.2 2.3 3.2 3.6h.4c1.7 0 3.2.4 4.7 1.5.5.4 1.2.5 2 .8.1.2.3.5.5.9.9.5 2 .9 2.3 2.2.6 0 1.1.1 1.7.1.6 1.4 1.6 2.1 3 2.7 1.4.6 2.5 1.9 3.9 3.1h.5c2.2 2.4 4.9 3.8 7.5 5.9.3.7.4 1.8 1.2 2.7.6.7.4 1.7.4 2.6.8.8 1.8 1.7 1.5 3.2.4.1.7.2 1.2.3.6 1.2 1.3 2.6 2 3.9.5-.3 1-.5 1.4-.7.6.4 1.2.7 1.7 1.1l.1-.1c.9 1.1 1.9 2.2 2.8 3.2 1.9-.2 3.4.6 5 1.3.9.4 1.8.7 2.8.7 1 0 2 .1 3 .2 1.9.6 2.5 2.4 3.7 3.8v3.4c-.2.1-.4.1-.7.2.9 2.2 1.5 4.5 2.7 6.6.4.8.8 1.5 1.3 2.2.2.2.5.4.8.5 1.2.4 2.4.9 3.7 1 .8.1 1.7.4 2.6.6.1.1.2.3.4.5 0 1.1-.3 2.2.1 3.2.4 1.1.1 2.1.5 3.1s.6 2.1 1 3.2c-.2.6-.5 1.3-.7 2 2.1.6 3.7 2 5.3 3.2.7.5 1.1 1.2 1.3 2 .8.1-.1 1.3.9 1.5.4.1.6.8 1.1 1.5 0 .9-.2 2.1.9 3.1-1.3 1.4-.8 3.1-.9 4.6 1.3 1.8 2.5 3.6 3.9 5.4-.4 2 .9 3.7 1.6 5.7-1 .6-1.9 1.3-3 2-1.2-.1-2.4-.1-3.8-.2 1.1 1.7 1.7 3.5 3.3 4.8.2.2.4.5.5.8.6 1.2 1.1 2.3 2.5 2.9-.2.3-.4.6-.4.7.1.7.3 1.3.3 1.9.1 2.1.1 4.2.1 6.2.3.3.6.2.8.7.8 1.7 1.8 3.3 3.2 4.5 1 .9 1.6 2 2.2 3.2.3.7.6 1.3 1.2 1.8 1.3 1.1 2.1 2.4 2.8 3.9.8 1.8.9 1.8 2.6 2.8.3.2.6.3 1 .5v1.1c1.8.7 3.1 1.9 3.2 4.2.5-.4.9-.6 1.4-.9.8.2 1.7-.3 2.6.5.1.1.4.1.6 0 2.1-.8 4.3-.2 6.5-.1 1.2.1 2.5.7 3.7 1.3 1.7.9 3.4 1.6 5.3.8 1.2.3 2.1-.5 3.1-.8 1-.4 2.1-.7 3.2-1 .3-.1.7-.1 1.1-.2.3-.1.7-.2 1-.3.2-.7.4-1.4.6-2.2l4.8-2.4c.2-.1.6-.2.7-.1.7.5 1.5.2 2.1.4 1.2.5 2.3.3 3.5.4.8 0 1.6.1 2.2.8.7 0 1.4.1 2.1-.3.6-.3 1.3.2 2-.3.2-.2.7-.1 1.1-.1 3.1 0 6.2 0 9.1.1 1.1.4 1.7 1.1 2.9.5 1-.5 2.3-.5 3.4-.5 6 0 12.1 0 18.1-.1.6 0 1.1 0 1.6.4s1 .4 1.6.4c2 0 3.9 0 5.9-.1.8 0 1.5-.3 2.3-.4.8-.1 1.6.2 2.3-.4 1.5 0 3-.1 4.5-.1l.5.5c0 1.8 0 3.6.1 5.5 1.1 0 2.2 0 3.2-.1.4.3.6.6.9.8 4.8-.1 9.7-.2 14.5-.4.2.2.5.4.7.7 1.1 0 2.2-.1 3.5-.1.1-.2.4-.5.5-.7h1.3l.7.7c2.3-.1 4.6-.2 7.1-.2.1.4.3.8.4 1.2.1.4.3.8.4 1.2 4.4-.2 8.6-.3 12.8-.5l.5.5v3.9c3.9-.2 7.8-.4 11.6-.5.5.4.9.8 1.4 1.3v1.4c.4.6.7 1 1 1.5.1-.1.2-.3.3-.3 1.9-.1 3.8-.2 5.9-.3.1.1.3.4.4.6 3.2-.2 6.3-.3 9.3-.5.5 0 1-.1 1.4.5v2.4c.4 0 .7 0 .9-.1.6.5 1.1 1 1.6 1.5 3.3-.2 6.6-.4 10-.6.2.4.4.9.7 1.4 2.2-.1 4.5-.3 7-.5.3-.4.6-1 1-1.5 1-.1 2-.1 3-.2.8.8 2-.3 2.7.5.9-.1 1.9-.1 2.8-.2.6-.1 1 .1 1.6.2 1.5.5 3.1.7 4.7 1.2 1.1.3 2.3.2 3.5.1h.4c1.5-1.5 3.3-.8 5-1.2.2-.2.4-.5.7-.8 1.1 0 2.4-.5 3.4.5 1.2 0 2.2.4 3 1.2.3.3.6.3 1 .4 2.2.8 4.6.9 7 .5.5-.1 1-.1 1.5-.3 1.4-.5 2.7-1 4.1-1.6v-4.3c.6-.4 1.2-.7 1.8-1.1.5-1 1-2.1 1.5-3.3.3-.1.6-.1.9-.2.8-.4 1.6-.8 1.8-1.8.2-1.1 1-1.9 1.8-2.8 1.7-.1 3.4.3 5.1.7.6-.4 1-.8 1.5-1.2v-.7c.1-.1.3-.3.4-.5.8-.4 1.6 0 2.4-.1.7-.1 1.5-.5 2.3-.5.2-.5.4-1.1.5-1.6.5-.1.9-.1 1.5-.2.3.4.7 1 1.3 1.4.5.4 1.1.8 1.7 1.2-.2.4-.4.6-.5.8.8.4 1.5.8 2.3 1.2.4-.6.6-1 .9-1.3.3-.3.7-.4 1.1-.6.6.1 1 .4 1.4.7.5.4 1.3.6 2 .8h.2c.9-.2.6 1 1.4 1 .5 0 1.1.3 1.6.6.2.1.2.5.3.9 1.1.3 2.5.4 3.5.9 1.4.7 2.5-.5 3.9-.5.3.3.8.7 1.3 1.1.4-.4.7-.7 1-1.1.6.2 1.3.3 2 .5 0-.2.1-.3.1-.6.9-.1 1.9-.2 3-.4.6.8.5 2.1 1.4 2.8.4-.2.8-.4 1.2-.5.5-.1.8-.4.8-.9 0-.7.3-1 .9-1.2.5-.2.9-.7 1.3-1.1.6-.4 1.2-.9 2-.8.7-.9 1.5-1.7 2.2-2.6 1.2-.2 2.4-.3 3.5-.5 1-.1 2.1-.3 2.8.5 1.9-1.4 2.9-1.4 4.6-1.1v-1.2c.2-.3.4-.5.7-.8.5.2 1 .5 1.5.6.6.1 1.2-.1 2-.2.2.4.4.8.6 1.3.4-.1 1-.1 1.6-.2.3-.5.6-1.1 1-1.7.4.2.7.4 1.1.7 1.4-.1 1.4-.1 2.9-1.2.3.2.6.5.9.7 2-.2 4.8.5 6.7 1-.3.4.2.8 0 1.1-.7.1-3.4.5-4 .6-.5-.4-1-.8-1.4-1.2-.9-.1-1.9.6-2.8-.1-.9.7-1.9.9-2.9.6-.2.3-.5.7-.7 1.1-1.2.2-2.3.3-3.6.5-.2-.4-.4-.9-.6-1.3-.4-.1-.9-.2-1.6-.3-.2.5-.5 1.1-.7 1.7-1.7.1-3.4-.7-5 1.1-.5-.2-.9-.4-1.6-.6-1.3.2-2.8.4-4.6.6-.3.4-.8 1-1.3 1.6-.4.4-.9 1-1.3 1-1.2.1-1.8 1.1-2.7 1.7v2c-.2.2-.3.4-.5.5-.5-.2-.9-.4-1.4-.5-.7.3-1.3.7-2.1 1.1-.6-.9-1.3-1.9-2.1-3-.4.3-.9.6-1.5 1-.5-.1-1.2-.3-1.9-.5-.6.5-1.3 1.2-2.1 1.8-.3-.7-.7-1.3-.9-1.9-1.1.3-2.1.6-2.8.8-1.4-.4-2.4-.8-3.7-1.1-.4 0-1 .1-1.5.2-1.1-.2-.7-1.1-.8-1.6l-5.7-2.1c-.3.4-.6 1-1 1.6-1.3-.5-2.5-1-3.6-1.5-.6-1-1-1.8-1.7-2.9-.3.6-.5.9-.5 1-1.2.4-2.2.1-3.2.8-.4.2-1 0-1.7-.1-.8.6-1.7 1.4-2.7 2.1-.9.1-1.8.2-2.7-.1-.8-.2-1.7-.1-2.7-.1-.1.1-.5.4-.5.6.3 1-1.1 1.5-.9 2.4 0 .1-.3.5-.5.5-.6.3-1.3.4-1.9.6-.9 1.4-.9 3.3-2.7 4v4.5c-1.3.5-2.7.9-4.3 1.5-.5.5-1.2 1.1-2.3 1.1-.3 0-.5 0-.8.1-2.8.7-5.3-.3-7.9-.8-.2 0-.4-.1-.5-.2-1-1.2-2.6-1-3.8-1.7-.2-.1-.6 0-.9.1-.2.3-.5.5-.7.7-.1 0-.2.1-.3.1-1.1.1-2.3.2-3.4.3-.9 0-1.7.2-2.3.9-2.2.7-4.1-.4-6.2-.6-.7-.7-1.8.2-2.6-.5-.1-.1-.3-.2-.3-.2-1.8 0-3.6.2-5.2-.2-1.3-.3-2.5 0-3.7-.1-.3.5-.7 1.1-1 1.6-2.9.2-5.9.4-9 .6-.2-.4-.4-.8-.6-1.4-3.2.2-6.6.4-9.9.6-.8-.9-1.7-1.7-2.9-1.7v-2.7c-3.4.2-6.8.4-10 .6-.3-.3-.5-.5-.8-.7-1.5.1-3 .2-4.6.2-.4.2-.8.5-1.4.9-.2-.2-.7-.5-.7-.7.1-.7-.4-1-.8-1.4v-1.5c-.3-.3-.6-.5-1.1-.9h-.4c-3.4.2-6.7.3-10.1.5-.5 0-1 .1-1.4-.6v-3.9c-3.9.2-7.8.3-11.5.5-2.1-1.2-2.1-1.2-2.3-2.3-1.5.1-3 .1-4.5.1-.6 0-1.3.3-1.8-.3-.1-.1-.4-.1-.5 0-2.1.9-4.2.2-6.3.6l-.8-.8c-2.4.1-4.9.1-7.3.2-2.4.1-4.8.1-7.2.2l-.7-.7c-1.2-.3-2.6.5-3.7-.5 0-1.8 0-3.7-.1-5.6-1.6 0-3.2-.1-4.8.1-1 .2-2 .1-2.9.4-1 .3-2.1.3-3.1.4h-3c-.9 0-1.7 0-2.4-.7-6.9.1-13.8.1-20.7.1-1.2 0-2.3.4-3.7.6 0-.1-.2-.5-.2-.7-3.9 0-7.4-.1-10.8-.1-.6 0-1.2.2-1.7.3-.5.1-1.1-.2-1.6.3-.1.1-.7 0-1-.2-.7-.5-1.5-.5-2.3-.5-.7 0-1.4.1-2.2-.4-.6-.4-1.4.1-2.2-.3-.5-.3-1.2-.3-1.9.2-1.1.7-2.3 1.1-3.5 1.6-.2.6-.4 1.3-.6 2.1-2.3 1.2-5.1 1.1-7.4 2.6-.6 0-1.3 0-2.1.3-.6.3-1.5-.3-2.1.3-.1.1-.5.1-.7-.1-1-.7-2.3-.8-3.5-1.5-1-.6-2.2-1-3.5-1-1.3.1-2.7-.1-4.1-.1-.3.2-.6.5-1 .9-.6-.3-1.2-.6-1.9-1h-.9l-.7.7c-.9 0-1.8-.1-2.8-.1l-.5-.5v-1.7c-.3-.5-.4-.8-.5-1.1-.3-.2-.6-.5-.9-.5-.5-.1-.9-.4-1-.8-.6-1.4-1.8-1.9-3-2.5-.2-.1-.4-.3-.6-.4-.3-1.7-1-3.3-2.2-4.6-1.1-1.1-2.2-2.2-2.6-3.8-.1-.5-.6-1.1-1.1-1.5-1.5-1.3-2.3-3.1-3.5-4.6-.4-.5-1-.9-1.5-1.4 0-2.3 0-4.5-.1-6.8-.3-.4-.6-.7-.9-1.1.2-.2.3-.4.5-.6-1-1.9-1.7-4.1-3.8-5.5-.3-.1-.7-.3-1.3-.5.3-.5.4-.9.7-1.4-.4-.6-.9-1.3-1.4-2.1v-1c.2-.2.4-.3.5-.5 1.6.1 3.3.2 4.8.2.5-.3.9-.6 1.4-.9-.5-1.7-1.8-3.3-1.5-5.2l-3.9-5.4v-3.3c.3-.5.5-.9.8-1.4-.2-.4-.5-.9-.8-1.5v-1.5c-.6-.9-1.2-1.7-1.5-2.5-.8-1.8-4-4.1-6-4.1-.3-.3-.5-.6-.8-.8.1-.5 0-1 .3-1.4.7-1.2.1-2.3-.2-3.5 0-.2-.2-.3-.2-.5-.2-1.3-.3-2.6-.4-3.9-.1-.8-.3-1.7-.5-2.5-1-.2-2.1-.4-3.1-.7-1-.3-2.1-.7-3.2-1-.8-1.4-1.9-2.6-2.5-4.2-.6-1.6-1.3-3.1-1.8-4.7-.2-.7-.6-1.3-.9-2.2l.8-.4V206c-.7-.7-1-1.9-2.7-2.3-.8 0-2.3.1-3.6-.3-1.2-.4-2.5-.9-3.7-1.5-.2-.1-.5-.2-.7-.2-1.4.2-2.6-.6-3.9-1-.3-.1-.7-.4-.7-.6-.1-1.4-1.1-1.8-2.1-2.3-.2-.1-.3-.3-.4-.4-.5.2-.9.4-1.5.7-.8-.8-1.5-1.6-2-2.7-.3-.7-.7-1.4-1.5-1.8-.9-.4-1.1-1.5-1-2.5-1.2-1-1.8-2.2-1.5-3.8-.8-.9-1-2-1.3-3.1-2.7-1.4-4.8-3.7-7.6-5.1-.3-.2-.6-.5-.8-.8-1.4-1.6-3.1-2.6-5.2-3.2-.3-.5-.6-.9-.9-1.4-.4 0-.8-.1-1.2-.1-.5-.6-1-1.2-1.6-1.8-.8-.6-1.7-1.1-2.6-1.7-1.1-.9-2.4-1.8-4-1.7-.7.1-1.4-.1-2-.2-2.2-.9-2.7-3.2-4.1-4.8v-1.9c.3-.2.5-.4.7-.7v-1.1c-.2-1.2.2-2.3.7-3.2.3-.5.6-1.1.7-1.7.1-.3-.2-.8-.3-1.2-.9-.1-1.7-.1-2.3-.2-2-1.3-2.3-2-1.5-3.9-.3-.5-.6-1.1-.8-1.6-.2-.1-.3-.1-.3-.1l-3.3-.3-.6-.6V144c-.7-.3-1.4-.5-2-.9-.6-.4-1.2-.9-1.8-1.4-.4.1-.8.2-1.1.4-.6.3-1.1.1-1.7-.1-1.3-.5-1.9-1.6-2.6-2.6-.3-.4-.5-.8-.8-1.3 0-1.9-.1-4 0-6.1 0-.8 0-1.6-.6-2.3-.4 0-.7-.1-1.2-.1-.2.2-.4.6-.6.9-.3.4-.9.1-2.9-1.3-.5.2-1 .4-1.7.7-.2-.3-.5-.7-.6-1-.6-1.2-1.1-2.3-1.7-3.5-.3-.6-.7-1.1-1.1-1.7-1.1.8-1.5 2.1-2.2 3-1.3 1.8-2.3 3.7-3.9 5.2-1.5-.7-3-1.4-4.6-2.1-.5.2-1.1.4-1.7.6-1.3-1.1-2.1-2.7-3.7-3.5-.5.2-1 .4-1.4.6l-2.1-2.4c-1.1-1.8-1.2-3.8-1.1-5.8-1.9-.4-3.8-.8-5.6-1.2-.2-.2-.4-.5-.7-.8-.5-.1-1-.1-1.5-.2-.2-.2-.3-.4-.5-.6v-3.8c-1-.9-2.3-1.3-2.7-2.7-.4-1.5-1.1-2.9-1.1-4.4v-4.5c.3-.2.6-.4 1.1-.6.1-.2.4-.4.4-.8v-4.1c-.2-.3-.5-.7-.8-1 1.1-1.4.8-3.1.8-5-.3.2-.4.2-.7.4-1.5-1.4-3.4-1.1-5.2-1.4-.8 2.2-1.7 4.2-3.5 5.4-1.4.4-2.7.7-4.4 1.2-2.7-.9-4.7 1-6.8 2.5-.3.8-.6 1.7-.9 2.6-.8-.1-1.6-.2-2.2-.3-.6.8-1.2 1.4-1.8 2.1-.6-.4-1-.7-1.6-1.1-1.1.8-2.3.9-3.7-.5v4.9c-.9.3-1.7.5-2.7.9-.3 0-.8-.1-1.4-.2-.2.5-.4 1-.7 1.8-.2.2-.8.6-1.2.9-.3 1.2.4 2.2.7 3.6v-.2c-1 1.7-.7 3.7-.7 5.7-1 1.1-1 2.4 0 3.9 0 1-.2 2.1.8 3.1v3.7l-.6 1.2c-.4-.3-.5-.5-.9-.7v2.9c-.4.3-.6.5-.8.7v2.3c-.2.2-.4.4-.7.6v2.5c-1.4.3-2.6 1.1-4.4.5-1.4-1-2.5-2.4-3.6-3.9-.4-.6.1-1.6-1.1-1.8-.3-.6-.5-1.3-.8-2 .2-.2.5-.5.7-.8-.1-.1-.2-.2-.3-.2-.6.1-1.1.2-1.9.3 0 .4 0 1-.1 1.5-.2.2-.3.3-.5.4-1-.1-2-.3-3-.5-.7-.6-1.5-1.2-2.3-1.8-2.2-.5-4.5-.8-6.3.1-.4 1.2-.7 2.3-1.1 3.4-1.6-.8-3.1-1.5-4.5-2.1-1 .3-1.9.6-2.9.9-.7-.1-1.6-.2-2.6-.4-.5.6-1 1.4-1.6 2.3-.3.1-.8.3-1.3.5-.1.4-.2.8-.4 1.1-.7.1-1.2.1-1.7.2s-1 .1-1.5.3c-1.3.5-2.8.3-4.2.1-1-.2-2-.3-3-.5-1.6-1.4-3.5-2-5.4-2.5-.4-.7-1.5-.6-1.7-1.6-1-.5-2-.9-3.2-1.4-1.1.7-2.4.7-3.8-.7-1-.2-2-.2-2.9-1.1-.2-.2-.7-.2-1-.2-.3 0-.7.1-1 .2-.2.4-.5.9-.8 1.4-.6.9-1.4 1.7-1.8 2.7-.5 1.3-1.7 1.3-2.8 1.3-1.1 0-2.2-.4-3.5-.6-1-1.3-2.4-1.1-3.8-1.5-.4.4-.9.9-1.5 1.4-1-1.2-2.2-.8-3.3-1.5-1-.7-2.2-.2-3.5.2-.1-.2-.2-.6-.3-.9-.1.1-.2.1-.3.2v-1.7c-.9-.7-1.7-1.3-2.7-2.1-.9-.2-2-.4-3.2-.6 0 .1-.2.3-.1.5.2 1.3-.2 2.3-.7 3.4-.3.6-.6 1.3-.9 1.9-.8-.2-1.6-.4-2.4-.5-.7-.1-1.4 0-2.2 0-1.2.8-1.9 1.3-4.2-.6-.5.1-1.1.1-1.7.2-.7.5-1.4.9-1.9 1.2-1.6.3-2.6-1.1-3.7-1.4-.8-.7-1.3-1.8-2.3-2.4-.3-.6-.6-1.3-.9-2-.5-1-.8-2-.8-3.1 0-.7-.1-1.5-.4-2.2-.5-.9-.2-1.6-.4-2.6-.2-.2-.5-.4-.7-.6v-2.1c.2-.2.4-.4.7-.6 0-2.2 0-4.4-.1-6.6-1.3-1.1-2.7-2.1-4.2-3.3-1.4-.3-3-.6-4.6-1-.6.5-1.3.9-2.1 1.5-.3.7-.7 1.7-1.1 2.7-.3-.1-.6-.1-.9-.2 0-.2-.1-.4-.1-.5.2-.6.5-1.2.8-1.8.1-.3.3-.7.4-.9.5-.4.9-.7 1.4-1.1.8.3 1.3-.4 1.7-1.2 1.2.3 2.5.6 3.7.8 1 .2 1.7.7 2.5 1.4.9.9 1.8 1.7 3.1 2.8-.1-.3-.1-.2 0-.1 1 1.8 1.3 3.6 1.2 5.5-.1.9 0 1.9 0 2.9 0 .3-.2.6-.2.9.1.8.3 1.6.3 2.2-.2 2 .7 4 .8 6 .7.7.5 2 1.7 2.5.6.2.6 1 .6 1.5.7.4 1.4.8 2.3 1.4.1 0 .6.1 1.2.2l1.1-1.1c1.1-.1 1.9-.3 2.8-.4.8.6 1.7 1.3 2.7 1.2 1.7-.7 3.5-.7 5.3-.5.3-.7.5-1.3.8-1.9.1 0 .1 0 .2.1v-3.5c.2-.2.3-.3.5-.4 1.5.3 2.9.6 4.6.9.4.3.8.8 1.3 1.2.5.4 1.3.8 1.6 1.3.4.5.5 1.3.7 1.9.9 0 1.5-.8 2.6 0 .8.5 1.7.6 2.8.9.2-.1.6-.3 1-.4.4-.2.8-.3 1.3-.5.8.1 1.7.3 2.3.4 2.3 1.6 4.3 1.7 6.2 1.6 1.1-1.8 2.2-3.4 3.2-5 .8-.1 1.7-.2 2.7-.4.3.2.7.5 1.4 1 .8.2 1.8.2 2.8 1.1.4.4 1.1.3 1.7.5.2-.2.4-.5.7-.8 1.3.9 2.7 1.5 4.2 1.5.2.3.3.7.6 1 .4.5.9 1.2 1.4 1.2.9.1 1.6.7 2.5.9.8.1 1.4.4 2 1.1 1.3.2 2.6.4 4 .7 1.6.3 3.1.3 4.4-.4.3-.2.7-.2 1.1-.3.1-1 1.1-.9 1.9-1.3.7-2.5 2.6-2.8 5.1-2.1.9.1 1-.8 1.4-1.2 1.7.7 3.3 1.4 5 2.2.9-.7.5-2 .6-3.1.2-.2.4-.3.5-.5 1.3.2 2.4.2 3.7 0 1-.2 2.3.3 3.6.5.7.5 1.4 1.1 2.4 1.8.4.1 1 .2 1.8.3 0-.6.1-1.2.1-1.7.2-.1.3-.2.5-.4.7.1 1.5.2 2.4.4.7-.7 1.5-1.3 2.2-2 .6.3 1.1.7.9 1.3-.4 1.2-.4 2.6-1.5 3.4l1.5 1.2v1.6c.9 1 1.7 1.9 2.5 2.9 1 .2 2 .4 2.8-.1v-2.7c.2-.1.5-.3.6-.3.2-.9.2-1.7.6-2.2.5-.6.2-1.3.3-1.9v-2.2l.6-.6c.2.2.5.4.7.5l.1-.1c0-.9.2-2-.2-2.8-.6-1.1-.6-2.1-.6-3.1-1.1-1.6-1.1-2.6 0-3.8v-2.6c.9-.5.1-1.6.7-2.3.5-.7-.3-1.8-.4-2.7-.1-.5-.3-.9-.4-1.3.7-.6 1.3-1.2 1.7-1.5.4-1.1.7-1.9.9-2.7 1.2-.1 2.4.6 3.4-.3v-3.6c.5-.6.9-1.1 1.4-1.7 1.3 1.2 2.6 1.8 3.9.6.5.4 1 .7 1.4 1 .4-.6.9-1.3 1.3-2 .7.1 1.3.2 2 .3.4-1 .7-2 1-2.9 1.1 0 2.3-.5 3.9-1.8.7-.1 1.3-.2 2-.3.1 0 .2-.2.3-.2 1.6.4 3-.3 4.4-.6h.5c1.6-1.2 2.6-2.7 2.9-4.8.7-.8 1.7-1.2 3-.9.8.2 1.6.2 2.4.5.7.3 1.4.7 2.5 1.1.2.2.6.7 1.1 1.4.1 1.3.1 2.8-.7 4.1 1.2 1.6 1 3.3.8 4.9-.2 1.1-.3 2.5-1.4 3.2.1 2.3-.2 4.6.7 7.2.8.7 1.9 1.6 3 2.6.2.5.5 1.1.9 2.1v.6l2.1 2.1c1.7.4 3.3.8 5 1.1.1.3.3.6.5 1.1.1 1.7-.2 3.4.5 5.4.3.3.7.8 1.2 1.3.4-.2.9-.4 1.3-.6 1.7.7 2.9 2.1 4 3.5.4-.2.8-.4 1.3-.6 1.4.7 2.8 1.4 4.3 2.1 1.2-.8 1.7-2.1 2.5-3.2 1-1.3 1.7-2.8 2.7-4.1.3-.5.8-1.1 1.6-.8 1.9 2 1.9 2 3.5 5.7.4 0 .8-.1 1.6-.2.5.3 1.2.7 1.9 1.2.2-.3.4-.6.6-1 1 .1 1.9.2 3 .3.5 1.2 1.1 2.5 1.2 3.9 0 2 0 4.1.1 6.1 2.5 3.5 2.8 2.6 4.6 1.9h.2c1.1 1 1.4 1.1 3 1.8-.3-.4.4.2 1.2.7z"/>
    <path d="M868.6 263.5c.6.2 1.1.4 1.6.6.2.1.5 0 .6.2.5 1.2 1.9 1.1 2.5 2.1v1c.3.4.8.7 1.4.9.6.2 1.1.1 1.7-.4.6-.5 1.3-.9 2-.9.9 0 1.5-.7 2.3-1.2.1-.9.2-1.7 1.4-1.9.5-.1 1-.8 1.3-1 1.3-.1 1 .8 1.1 1.5.9.5 2 .7 2.4 1.8.1.1.3.3.4.3 1.5-.4 2 1 3.1 1.3.2.8.3 1.6.5 2.3.9.3 1.8.5 2.7.7.1 1.1-.2 2.5.8 3.1-.2.6-.3 1.1-.5 1.8 1.1-.2 2-.5 2.5-.6 2 .5 3.6.8 5.4 1.2.1-.3.2-.8.2-1 1.9-.3 3.2-.1 4.7.3-.3.5-.6.8-.8 1.1-.7-.1-1.3-.2-2.2-.3-.2.2-.5.6-.9 1-2.2.4-4-.4-6.1-.9-1 .2-2.1.5-3.3.8-.5-.9-1.3-1.7-.7-3-.3-.9-.7-1.8-1-2.7-.5.1-.9.2-1.4.3-.7-1.3-1.5-2.7-2.3-4.1-.4.1-1 .2-1.6.3-.8-1.1-1.2-2.6-2.9-2.5-.3-.4-.6-.7-.9-1.2-.6.9-1 1.9-1.7 2.3-.9.5-.9 1.4-1.5 2-.9-.6-2-.6-3 .3-.6.6-1.2.7-1.8.4-.5-.2-1.1-.2-1.5-.2-.7-.6-1.3-1.1-2-1.7v-1.1c-.4-.2-.9-.3-1.2-.5-.3-.2-.4-.5-.7-.8-.6.9-.6.9-1.8 1.7-.6.4-1.2 1-1.6 1.7-.4.8-.9 1.6-1.5 2.1-.8.7-1.8 1.4-2.8.8-1 .6-2.2.9-3.1 1.9-.1.4-.2.9-.4 1.4-.7.1-1.2.2-1.6.3l-1.4 1.4v.3c-.6 1.3-1.3 2.6-2.3 3.7-1 1.1-1.9 2.4-3 3.6-.2 0-.5.1-.8.2-.3.3-.5.6-.8.9-.4-.1-.9-.3-1.4-.5-2 1.9-4.5 3-6.3 5.4.1 1.2-.5 2.3-1.8 3.3-1.2 1-2.5.9-3.7 1.3-.2.4-.5.9-.8 1.3-.3.4-.6.8-1 1.2-1.2-.3-2.1 1.6-3.5 1.3 0-.1-.1-.3-.1-.5-.7.4-1.3.7-2 1-.7.3-1.5.6-2.3.9-.3 1.6-1.7 2.7-2.5 3.8-.2.7-.3 1.1-.5 1.6-.9.2-1.7.1-2.4.5-.6.4-1.3.7-2 1.1-.7.4-1.4.8-2.2 1.2-.7-.5-1.1-1.1-1.4-2-.5-1.4-1.3-2.6-2.2-3.6 0 0 0-.1-.1-.2.2-.5.5-1 .7-1.5-.1-.2-.3-.4-.3-.6-1.1-.5-2.1-1.2-3.2-1.5-.9-.3-1.5-.8-2.1-1.5-.4-.4-.4-1.3-.6-2.1-.7.4-1.4.8-2.2 1.3-.2-.3-.5-.6-.8-1l-.5.5c-.7-.9-2-.5-2.9-1.1-.7.1-1.4.2-2.1.4-.7.7-1.4 1.3-2.1 2l-1.5-.6c-.6.1-1.3.2-2 .3-.4.3-.9.7-1.5 1.1-.3-.2-.6-.4-.9-.7-1.2.2-2.5.4-3.9.6-.2-.4-.4-.9-.5-1.2-.9-.5-1.7-.9-2.6-1.4-.1 0-.5.1-1 .2-.2.2-.4.5-.6.8-1.2 1.3-2.1 1.5-3.3.8-.8-.5-1.6-.5-2.5-.5-1-1-2.1-1.6-3.6-1.7-.3 0-.5-.4-.7-.6-.2-.2-.4-.4-.5-.7-.9.1-1.8.3-2.8.4-.2-.4-.4-.9-.6-1.3-.5-.2-1-.3-1.8-.6-.5.1-1.3.2-2.2.3-.8.1-1.6.3-2.6.4-.2.3-.4.6-.5.8-.5-.1-.8-.2-1.1-.2-.8.6-1.5 1.1-2 1.5-1.2.1-1-.7-1.2-1.2-.2-.5-1-.6-.6-1.5-.4-.2-.6-.3-.9-.4-.3-.1-.5-.2-.8-.3-.2.3-.4.5-.6.7v2.4c-.6.7-1.2 1.5-1.9 2.3-.7.8-1.4 1.6-2.2 2.5-.1-.1-.2-.4-.4-.7-1.1.4-2.1.7-3 1-.2-.7.2-1 .7-1.3 1-.6 1-.6 2.1-.4.2-.8.5-1.4 1.4-1.2.2-.5.4-1.1.7-1.5.1-.2.6-.2.9-.3v-3.2c.8-.6 1.5-1.1 2.3-1.6.8.4 2 .3 2.4 1.1.4.8 1.7.6 1.5 1.9.5-.6.8-1 1.3-1.5 1.6-.2 3.2-.3 4.8-.8 1.4-.4 2.6.3 3.9.2.5.9 1.8.3 2.2 1.2.5-.1 1-.2 1.3-.2.5.2.9.5 1.4.5.8 0 1 .4 1 1.1 1 .5 1.9 1.1 3.2 1.8.5.1 1.6-.1 2.3.7.4-.1.7-.1 1.1-.2 2-2.4 3.1-2.5 5-.8.5-.1 1-.2 1.7-.3.2.4.4.9.6 1.4 1.4.1 2.9-.8 4.4-.3 1.4-.9 2.8-1 4.1-.2 1-1 1.9-2 2.6-2.8 1.1.3 2 .6 2.9.9.2-.2.5-.5.7-.8.7-.1.8.4 1 .9.9-.7 1.2 0 1.6.6.5-.2 1-.5 1.5-.7 1.5.1 2.2.9 2.1 2.6.7.4 1.4.8 2.2 1.2.9.4 1.7.9 2.7 1.3.6.2.9 1.2 1.3 1.9-.3.4-.6.8-.8 1.1 0 .2 0 .3.1.4.6.3.7 1 1.1 1.5.4.6.6 1.4 1.5 1.4.3 0 .4.5.7.9 1.3-.6 2.6-1.3 4.2-2.1.9-1.3 2.5-2.5 3.1-4.6 1.8-.9 3.8-1.9 5.9-3 .4 0 .9.1 1.4 0 .5-.1 1-.5 1.6-.8l1.1-2.2c.3-.1.7-.2 1-.3.2-.3.4-.5.7-.8.4-.1.7-.1 1.1-.2.2.2.5.4.7.6.4-.3.8-.7 1.2-.9.2-.8.3-1.5.5-2.2 1.9-1.6 3.4-3.6 5.5-4.6.1-.7.1-1.2.2-1.6.1-.3.2-.5.3-.8l2.4 1.2c2-1 3.1-2.9 4.5-4.6.3-.4.4-1.1.7-1.5.3-.5.7-.9 1-1.3v-.8l1.2-1.5c.5-.1.9-.2 1.4-.3l3-2.7c.1-.1.3-.3.5-.3.9 0 1.4-.7 2.3-1.3.3.2.6.5 1 .7 1.2-1 1.8-2.1 2.1-3.4 1.2-.6 2.3-1.7 3-3.3z"/>
  </g>
  <g id="nZ2iWP.tif_1_">
    <path d="M1170.7-122.6v2.5c.2 0 .3.1.4.1.4-.2.8-.5 1.3-.7l.5.5 2.1 2.1.6.6c-.1.8-.3 1.8-.5 3.1.7-.4 1.1-.7 1.5-.9 1 .6 2 1.2 3.2 1.9.1 1.7-.8 3.2-1.5 4.9v3.2c-.2.2-.5.4-.7.6v1.3c.7 1.4 2.2 2.1 3.2 3.3h.4c1.7-.1 3.3.1 4.7 1.1.5.4 1.2.4 2 .6.1.2.3.5.5.9.9.4 2 .7 2.3 2h1.7c.6 1.3 1.6 1.9 3 2.4s2.5 1.7 3.9 2.8h.5c2.2 2.2 4.9 3.4 7.5 5.3.3.7.4 1.8 1.2 2.6.6.7.4 1.6.4 2.6.8.8 1.8 1.6 1.5 3.1.4.1.7.1 1.2.2.6 1.2 1.3 2.5 1.9 3.7.6-.3 1-.5 1.4-.8.6.3 1.2.6 1.7.9l.1-.1c.9 1 1.9 2 2.8 3.1 1.9-.3 3.4.4 5 1 .9.3 1.8.6 2.8.5 1-.1 2 0 3 0 1.9.5 2.5 2.3 3.6 3.6v3.4c-.2.1-.4.1-.7.2.9 2.1 1.5 4.4 2.6 6.5.4.7.8 1.5 1.3 2.1.2.2.5.4.8.5 1.2.3 2.4.8 3.7.8.8 0 1.7.3 2.6.5l.4.4c0 1.1-.3 2.3.1 3.2.4 1 .1 2.1.4 3.1.4 1 .6 2 1 3.2-.2.6-.5 1.3-.8 2 2.1.5 3.6 1.8 5.3 3 .7.5 1.1 1.2 1.2 2 .9.1-.1 1.3.9 1.4.4.1.6.8 1 1.4 0 .9-.2 2.2.9 3-1.3 1.4-.8 3.1-.9 4.7 1.3 1.7 2.5 3.5 3.8 5.3-.4 2 .8 3.7 1.6 5.6l-3 2.1h-3.9c1.1 1.6 1.7 3.5 3.3 4.7.2.2.4.5.5.7.5 1.1 1.1 2.3 2.4 2.8-.2.3-.4.6-.4.7.1.7.3 1.3.3 1.9v6.2c.3.2.6.2.8.7.7 1.7 1.8 3.2 3.2 4.4 1 .9 1.6 1.9 2.1 3.1.3.7.6 1.3 1.2 1.8 1.3 1 2.1 2.3 2.7 3.8.8 1.8.9 1.8 2.6 2.7.3.2.6.3 1 .5v1.1c1.8.6 3.1 1.8 3.2 4.1.5-.4.9-.6 1.4-1 .8.2 1.8-.3 2.6.4.1.1.4.1.6 0 2.1-.8 4.4-.3 6.5-.3 1.2 0 2.5.7 3.7 1.2 1.7.8 3.4 1.5 5.3.6 1.2.2 2.1-.5 3.1-.9 1.1-.4 2.1-.7 3.2-1 .3-.1.7-.1 1.1-.2.3-.1.7-.2 1-.3.2-.7.4-1.5.7-2.2 1.6-.8 3.2-1.7 4.9-2.5.2-.1.6-.2.7-.1.7.5 1.5.2 2.1.4 1.2.5 2.3.3 3.5.3.8 0 1.6.1 2.2.8.7 0 1.4.1 2.1-.3.6-.3 1.3.2 2-.3.2-.2.7-.1 1.1-.1h9.1c1.1.4 1.7 1.1 2.9.5 1-.5 2.3-.5 3.4-.5h18.1c.6 0 1.1 0 1.6.4s1 .4 1.6.4h5.9c.8 0 1.5-.2 2.3-.4.8-.1 1.6.3 2.3-.4h4.5l.5.5v5.5h3.2l.9.9h14.5l.7.7h3.5c.1-.2.4-.5.5-.7h1.3l.7.7h7.1c.1.4.3.8.4 1.2.1.4.3.8.4 1.2h12.8l.5.5v4h11.6l1.3 1.3v1.4c.4.6.7 1.1 1 1.5.1-.1.2-.2.3-.2h5.9c.1.1.3.4.4.7h9.3c.5 0 1-.1 1.4.6v2.4h.9l1.6 1.6h10.1c.2.4.4.9.6 1.5h7c.3-.4.6-.9 1-1.5h3c.7.9 2-.1 2.7.7h2.9c.6 0 1 .2 1.6.4 1.5.6 3.2 1 4.7 1.6 1.1.4 2.3.4 3.5.4.1 0 .3.1.4 0 1.5-1.3 3.4-.5 5-.8l.7-.7c1.1.1 2.4-.3 3.4.8 1.2.1 2.2.6 3 1.5.3.3.6.3 1 .5 2.2 1 4.6 1.3 7 1.1.5 0 1 0 1.5-.2 1.4-.4 2.7-.8 4.2-1.2v-4.3l1.8-.9 1.6-3.2c.3 0 .6 0 .9-.1.8-.3 1.6-.7 1.8-1.6.2-1.1 1-1.8 1.8-2.6 1.7.1 3.4.6 5.1 1.2.6-.4 1.1-.7 1.6-1v-.7l.4-.4c.8-.4 1.6.2 2.4.2.7 0 1.5-.4 2.3-.3.2-.5.4-1 .5-1.5h1.5c.3.4.7 1.1 1.2 1.6s1.1.9 1.7 1.3c-.2.3-.4.5-.5.8.8.5 1.5.9 2.3 1.4.4-.5.6-1 .9-1.2.3-.3.7-.3 1.1-.5.6.2 1 .5 1.4.9.5.5 1.3.7 2 1.1h.2c.9-.1.6 1.1 1.4 1.2.6.1 1.1.4 1.6.8.2.1.2.6.2.9 1.1.4 2.5.7 3.5 1.4 1.4.9 2.5-.2 3.9 0l1.3 1.3c.4-.4.7-.6 1-1 .6.2 1.3.5 2 .7 0-.2.1-.3.1-.6h3c.6.9.5 2.2 1.4 3 .4-.1.8-.3 1.2-.4.5-.1.8-.3.8-.8 0-.7.3-.9 1-1.1.5-.1.9-.6 1.3-.9.6-.4 1.3-.8 2.1-.6.7-.8 1.5-1.6 2.2-2.3h3.5c1 0 2.1-.1 2.8.8 2-1.2 3-1 4.6-.5v-1.2l.7-.7c.5.3 1 .7 1.5.8.6.1 1.3 0 2 0 .2.4.4.8.6 1.4h1.7c.3-.5.6-1 1-1.6.4.3.7.5 1.1.8 1.4.1 1.4.1 2.9-.8.3.3.6.5.9.8 2 .1 3.5 1.4 5.4 2.2-.3.4-.5.6-.7.8h-2l-1.4-1.4c-.9-.2-1.9.3-2.8-.5-.9.5-1.9.6-3 .2-.2.3-.5.7-.7 1h-3.7c-.2-.4-.4-.9-.6-1.4-.4-.1-1-.3-1.6-.5-.2.5-.5 1-.8 1.6-1.7-.1-3.4-1.1-5 .4-.5-.2-.9-.5-1.6-.8h-4.6c-.4.4-.8.9-1.3 1.4-.4.4-.9.8-1.3.8-1.2-.1-1.8.9-2.8 1.3v2l-.5.5c-.5-.2-.9-.5-1.4-.7-.7.3-1.3.5-2.2.8-.6-1-1.3-2-2.1-3.2l-1.6.8c-.5-.2-1.2-.4-1.9-.7-.6.5-1.4 1-2.2 1.6-.3-.7-.6-1.4-.9-2-1.1.2-2.2.3-2.8.4-1.4-.6-2.4-1-3.7-1.6h-1.5c-1.1-.3-.7-1.2-.8-1.7-1.9-.9-3.8-1.8-5.7-2.8-.3.4-.6.9-1 1.5-1.3-.7-2.5-1.3-3.6-1.9-.5-1-1-1.9-1.7-3.1-.3.6-.5.9-.5 1-1.2.2-2.2-.1-3.2.4-.4.2-1-.1-1.7-.3-.8.6-1.8 1.2-2.7 1.8-.9 0-1.8 0-2.7-.3-.8-.3-1.7-.3-2.7-.4-.1.1-.5.4-.5.5.3 1-1.1 1.4-.9 2.4 0 .1-.3.4-.5.5-.6.2-1.3.3-1.9.4-.9 1.3-.9 3.2-2.8 3.8v4.6c-1.4.3-2.7.7-4.3 1.1-.5.5-1.2 1-2.3.9h-.8c-2.8.4-5.3-.8-8-1.5-.2 0-.4-.1-.5-.3-.9-1.3-2.6-1.2-3.8-2-.2-.1-.6 0-.9 0l-.7.7c-.1 0-.2.1-.3.1h-3.4c-.9 0-1.7.1-2.3.7-2.3.5-4.2-.7-6.2-1.1-.7-.7-1.9 0-2.6-.7-.1-.1-.3-.2-.3-.3-1.8-.2-3.6-.1-5.2-.6-1.3-.4-2.5-.2-3.7-.3-.3.5-.7 1-1 1.5h-9c-.2-.4-.4-.9-.6-1.4h-9.9c-.8-1-1.6-1.8-2.9-1.9v-2.7h-10.1l-.8-.8h-4.6c-.4.2-.9.5-1.5.8-.2-.2-.7-.5-.7-.7.1-.7-.4-1-.8-1.4V41c-.3-.3-.6-.6-1.1-.9h-10.5c-.5 0-1 0-1.4-.6v-3.9H1408c-2.1-1.3-2.1-1.3-2.3-2.3h-4.5c-.6 0-1.3.3-1.8-.3-.1-.1-.4-.1-.5 0-2.1.8-4.2.1-6.3.4l-.8-.8h-14.5l-.7-.7c-1.2-.3-2.6.4-3.7-.6v-5.6c-1.6 0-3.2-.2-4.8.1-1 .2-2 .1-2.9.4-1 .3-2.1.3-3.1.3h-3.1c-.9 0-1.7-.1-2.4-.8h-20.8c-1.2 0-2.3.4-3.7.7 0-.1-.2-.5-.2-.7H1321c-.6 0-1.2.2-1.8.4-.5.1-1.1-.2-1.6.3-.1.1-.7 0-1-.2-.7-.5-1.5-.5-2.3-.5-.7 0-1.4.1-2.2-.3-.6-.3-1.4.1-2.2-.3-.5-.3-1.2-.2-1.9.2-1.1.7-2.3 1.1-3.5 1.7-.2.6-.4 1.3-.6 2.1-2.3 1.2-5.1 1.2-7.4 2.8-.6 0-1.3 0-2.1.3-.6.3-1.5-.2-2.1.4-.1.1-.5.1-.7 0-1-.7-2.3-.7-3.4-1.4-1-.6-2.2-1-3.5-.9-1.3.1-2.7 0-4.1 0-.3.2-.6.5-1 .9-.6-.3-1.2-.5-1.9-.9h-.9l-.7.7h-2.8l-.5-.5v-1.7c-.3-.5-.4-.8-.5-1-.3-.2-.6-.5-.9-.5-.5 0-.9-.4-1-.7-.6-1.4-1.8-1.8-3-2.4-.2-.1-.4-.3-.6-.4-.3-1.7-.9-3.3-2.2-4.5-1.1-1.1-2.2-2.1-2.6-3.7-.1-.5-.6-1.1-1.1-1.5-1.5-1.3-2.3-3-3.5-4.5-.4-.5-1-.9-1.5-1.3V1.5c-.3-.3-.6-.7-.9-1 .2-.2.3-.4.5-.7-1-1.9-1.7-4-3.7-5.4-.3-.1-.7-.2-1.3-.4.3-.5.4-.9.7-1.4-.4-.6-.9-1.3-1.4-2v-1l.6-.6h4.8c.5-.4 1-.7 1.4-1-.5-1.7-1.8-3.2-1.5-5.1-1.3-1.8-2.5-3.5-3.8-5.2v-3.3c.3-.5.5-.9.8-1.4-.2-.4-.5-.9-.8-1.5V-30c-.6-.9-1.2-1.6-1.5-2.4-.8-1.8-4-4-6-3.8l-.8-.8c.1-.5.1-1 .3-1.4.7-1.2.2-2.3-.1-3.5 0-.2-.2-.3-.2-.5-.1-1.3-.2-2.6-.4-3.8-.1-.8-.3-1.6-.5-2.5-1-.2-2.1-.3-3.1-.5s-2.1-.5-3.2-.9c-.8-1.3-1.9-2.5-2.5-4.1-.6-1.5-1.3-3.1-1.7-4.6-.2-.7-.6-1.3-.9-2.1.2-.2.6-.4.8-.5v-2.5c-.7-.7-.9-1.8-2.7-2.1-.8 0-2.3.3-3.6-.1-1.2-.3-2.5-.8-3.7-1.3-.2-.1-.5-.2-.7-.2-1.4.3-2.6-.4-3.9-.8-.3-.1-.7-.3-.7-.5-.1-1.4-1.1-1.8-2.1-2.1-.2-.1-.3-.2-.4-.3-.5.3-.9.5-1.5.8-.8-.8-1.5-1.5-1.9-2.6-.2-.7-.7-1.3-1.5-1.7-.9-.4-1.1-1.4-1-2.4-1.1-.9-1.8-2.1-1.5-3.7-.8-.8-1-1.9-1.3-3.1-2.6-1.2-4.8-3.4-7.6-4.5-.3-.1-.6-.5-.8-.7-1.4-1.5-3.1-2.4-5.2-2.8-.3-.4-.6-.9-.9-1.4h-1.2c-.5-.6-1-1.1-1.6-1.7-.8-.6-1.7-.9-2.6-1.5-1.1-.8-2.4-1.6-4-1.4-.7.1-1.4 0-2 0-2.2-.7-2.7-3-4.1-4.4v-1.9l.7-.7v-1.1c-.2-1.2.2-2.3.8-3.3.3-.6.6-1.2.7-1.8.1-.4-.2-.8-.3-1.2h-2.3c-2-1.2-2.3-1.8-1.5-3.7-.3-.5-.6-1.1-.8-1.5-.2-.1-.3-.1-.3-.1h-3.3c-.2-.1-.3-.3-.6-.5v-2.9c-.7-.2-1.4-.4-2-.7-.6-.3-1.2-.8-1.8-1.2-.4.2-.8.3-1.1.5-.6.4-1.1.2-1.7 0-1.3-.4-1.9-1.4-2.6-2.4-.3-.3-.5-.7-.8-1.2v-6.1c0-.8 0-1.6-.6-2.3h-1.2c-.2.3-.4.6-.7.9-.3.4-.9.2-2.9-1-.5.3-1 .5-1.7.9-.2-.3-.5-.6-.6-1-.6-1.1-1.1-2.2-1.7-3.3-.3-.5-.7-1-1.1-1.6-1.1.9-1.5 2.2-2.2 3.3-1.3 1.9-2.3 4-4 5.6-1.5-.5-3-1-4.6-1.6-.5.3-1.1.5-1.7.8-1.3-.9-2.1-2.4-3.7-3.1-.5.3-1 .5-1.4.7-.7-.7-1.4-1.5-2.1-2.2-1.1-1.7-1.2-3.7-1.1-5.7-1.9-.2-3.8-.4-5.6-.6l-.7-.7h-1.5l-.5-.5v-3.8c-1-.8-2.3-1-2.7-2.4-.4-1.4-1.1-2.8-1.1-4.3v-4.5c.3-.2.7-.4 1.1-.7.1-.2.4-.5.4-.8.1-1.3 0-2.7 0-4.1-.2-.3-.5-.6-.8-.9 1.1-1.5.8-3.2.9-5.1-.3.2-.4.3-.7.5-1.5-1.2-3.4-.7-5.2-.8-.8 2.3-1.7 4.4-3.6 5.9-1.4.5-2.7 1.1-4.4 1.7-2.7-.5-4.7 1.6-6.9 3.4-.3.8-.6 1.8-.9 2.8h-2.3c-.7.9-1.2 1.6-1.8 2.3-.6-.3-1-.6-1.6-.9-1.1.9-2.4 1.2-3.7 0v4.9c-.9.4-1.7.8-2.8 1.2h-1.4c-.2.5-.4 1.1-.7 1.9-.2.2-.8.7-1.2 1.1-.3 1.2.4 2.1.7 3.5v-.2c-1 1.8-.7 3.8-.8 5.8-1 1.3-1 2.5 0 3.9 0 1-.2 2.2.8 3v3.7c-.3.6-.4.9-.6 1.2-.4-.3-.5-.4-.9-.6v2.9l-.8.8v2.3c-.2.2-.5.4-.7.7v2.5c-1.4.5-2.7 1.5-4.5 1.1-1.4-.8-2.5-2-3.6-3.4-.4-.5.1-1.6-1.1-1.6-.3-.6-.5-1.2-.8-1.9.2-.3.5-.6.8-.9-.1-.1-.3-.2-.3-.1-.6.2-1.1.3-1.9.6 0 .4 0 1-.1 1.6l-.5.5h-3.1c-.7-.5-1.5-1-2.3-1.5-2.3-.1-4.5-.1-6.4 1.1-.4 1.3-.8 2.4-1.1 3.5-1.6-.5-3.2-1-4.5-1.4-1 .5-1.9.9-3 1.4h-2.6c-.5.7-1 1.5-1.7 2.5-.3.1-.8.4-1.4.7-.1.4-.3.8-.4 1.2-.7.2-1.2.3-1.7.4-.5.2-1 .3-1.5.5-1.3.8-2.8.8-4.3.8h-3.1c-1.6-1.2-3.5-1.4-5.5-1.6-.4-.6-1.5-.3-1.7-1.3-1-.3-2-.6-3.2-.9-1.2.9-2.5 1.1-3.8-.1-1 0-2.1.2-2.9-.6-.2-.2-.7 0-1 0-.3.1-.7.2-1.1.3-.2.5-.5 1-.8 1.5-.6 1-1.4 2-1.8 3.1-.6 1.4-1.7 1.6-2.9 1.8-1.1.2-2.3 0-3.5 0-1-1.1-2.4-.7-3.9-.8-.5.5-1 1.1-1.5 1.7-1-1-2.3-.4-3.4-.8-1-.5-2.2.2-3.5.8-.1-.2-.2-.5-.3-.8-.1.1-.2.1-.3.2v-1.7c-.9-.5-1.7-1-2.7-1.6h-3.2c0 .1-.2.3-.1.5.2 1.3-.3 2.4-.8 3.5l-.9 2.1c-.8 0-1.6-.1-2.5 0-.7.1-1.4.3-2.3.5-1.2 1.1-1.9 1.6-4.3.2-.5.2-1.1.3-1.7.5-.7.6-1.4 1.2-1.9 1.6-1.7.7-2.6-.6-3.8-.6-.8-.6-1.3-1.6-2.3-2l-.9-1.8c-.5-.9-.8-1.9-.8-2.9 0-.7 0-1.5-.4-2.1-.5-.8-.2-1.6-.4-2.5-.2-.1-.5-.3-.7-.5v-2.1c.2-.2.5-.4.7-.7v-6.6c-1.3-.8-2.7-1.6-4.2-2.4h-4.6c-.7.6-1.3 1.2-2.2 2-.3.7-.7 1.8-1.2 2.9h-1c0-.2-.1-.4-.1-.5.2-.7.5-1.3.8-2 .2-.4.3-.8.4-1 .5-.5.9-.8 1.5-1.4.9.1 1.3-.7 1.7-1.6h3.8c1 0 1.7.3 2.5.9.9.7 1.9 1.3 3.1 2.1-.1-.3-.1-.1 0 0 1.1 1.6 1.3 3.4 1.2 5.3-.1.9 0 1.9 0 2.9 0 .3-.2.7-.3.9.1.8.3 1.5.2 2.2-.3 2 .7 3.8.8 5.8.7.6.5 1.9 1.7 2.2.6.1.6.9.6 1.3.7.3 1.4.5 2.3.9h1.2c.4-.5.9-1 1.2-1.3 1.1-.4 1.9-.6 2.9-.9.8.4 1.7 1 2.7.7 1.8-1 3.6-1.4 5.5-1.6.3-.7.5-1.4.8-2h.2v-3.5l.5-.5h4.7c.4.3.8.6 1.4 1 .6.3 1.3.5 1.7 1 .4.5.5 1.2.7 1.8.9-.2 1.6-1 2.7-.5.8.4 1.8.3 2.8.4.2-.1.6-.4 1-.6.4-.2.8-.5 1.3-.8h2.3c2.3 1.2 4.4.9 6.3.4 1.2-2 2.3-3.8 3.4-5.6.9-.3 1.7-.5 2.7-.9.3.1.7.4 1.4.7.8.1 1.9-.2 2.8.6.4.3 1.1.2 1.7.2.2-.3.4-.6.7-.9 1.4.7 2.7 1 4.2.8.2.3.3.7.6.9.4.4.9 1 1.4 1 .9 0 1.7.4 2.5.4s1.4.2 2 .8c1.3 0 2.7-.1 4 0 1.6.1 3.1-.2 4.5-1.1.3-.2.8-.3 1.2-.5.1-1.1 1.1-1.1 1.9-1.6.7-2.6 2.7-3.2 5.2-3 .9-.1 1-1 1.4-1.4 1.7.5 3.3.9 5 1.4.9-.9.5-2.1.6-3.2l.6-.6c1.3 0 2.5-.1 3.7-.6 1.1-.4 2.4-.1 3.7-.1.7.4 1.4.9 2.4 1.4h1.8c0-.6.1-1.2.1-1.8l.5-.5h2.4c.7-.8 1.5-1.6 2.2-2.4.6.2 1.1.5.9 1.2-.4 1.2-.4 2.6-1.5 3.7.5.3 1 .7 1.5 1v1.6l2.5 2.5c1 0 2 .2 2.8-.5v-2.7c.2-.1.5-.3.6-.4.2-.9.3-1.7.6-2.2.5-.7.3-1.3.3-2 .1-.8 0-1.5 0-2.2.2-.3.4-.4.6-.7.2.1.5.3.7.4l.1-.1c0-.9.2-2-.2-2.8-.6-1-.6-2-.6-3-1.1-1.5-1-2.5 0-3.8v-2.6c.9-.6.1-1.6.7-2.4.5-.7-.3-1.7-.4-2.6-.1-.5-.3-.9-.4-1.2l1.7-1.7c.4-1.2.7-2 .9-2.8 1.2-.3 2.4.3 3.5-.8v-3.6c.5-.7.9-1.3 1.4-1.9 1.3 1 2.6 1.4 3.9.1.5.3 1 .5 1.4.8.4-.7.9-1.4 1.4-2.2h2c.4-1.1.7-2.1 1-3 1.1-.2 2.4-.8 4-2.3.7-.2 1.4-.4 2-.5.1 0 .2-.3.3-.2 1.7.2 3-.7 4.5-1.2.2-.1.4 0 .5 0 1.6-1.4 2.6-3 2.9-5.2.7-.9 1.7-1.4 3-1.3.8.1 1.6 0 2.4.2.7.2 1.5.5 2.5.8.2.2.6.7 1.1 1.3.1 1.3.1 2.8-.8 4.2 1.2 1.5 1 3.2.7 4.8-.2 1.1-.3 2.5-1.4 3.4.1 2.3-.2 4.6.6 7.2.8.6 1.9 1.4 3 2.2.2.5.5 1.1.9 2v.6c.8.7 1.5 1.3 2.1 1.9l5.1.6c.1.3.3.6.5 1 .1 1.7-.3 3.5.5 5.3l1.2 1.2c.4-.2.9-.5 1.3-.7 1.7.5 2.9 1.8 4 3 .4-.2.8-.5 1.3-.8 1.4.5 2.8 1.1 4.3 1.6 1.2-.9 1.8-2.3 2.6-3.5 1-1.4 1.8-3 2.7-4.4.4-.5.8-1.2 1.6-1 1.9 1.8 1.9 1.8 3.4 5.4.4-.1.9-.2 1.6-.3.5.2 1.2.6 1.9 1 .2-.3.4-.7.6-1h3c.5 1.2 1.1 2.4 1.1 3.8v6.1c2.5 3.3 2.8 2.3 4.6 1.5h.2c1.1.9 1.4 1 3 1.5 1.9-.7 2.6-.1 3.4.3zM1733.2 31c.7.4 1.1.7 1.6.9.2.1.6.2.6.3.5 1.3 1.9 1.5 2.6 2.6v1c.3.5.8.9 1.4 1.2.6.3 1.1.4 1.7 0 .6-.4 1.3-.6 2.1-.5.9.2 1.5-.3 2.3-.7.1-.8.2-1.7 1.5-1.6.5 0 1-.5 1.4-.7 1.3.2 1 1.1 1.1 1.8.9.7 2 1.2 2.4 2.4.1.2.3.4.4.4 1.6-.1 2 1.4 3.1 2 .2.9.3 1.7.4 2.4 1 .5 1.8.9 2.7 1.4.1 1.2-.2 2.4.8 3.3-.2.5-.3 1-.5 1.6h2.5c2 .9 3.6 1.6 5.4 2.5.1-.3.2-.7.2-.9 1.9.1 3.3.6 4.7 1.4-.4.4-.6.7-.8 1-.7-.3-1.4-.5-2.2-.8-.2.2-.5.5-.9.8-2.2-.1-4.1-1.3-6.2-2.3h-3.4c-.5-1-1.3-2-.6-3.2-.3-1-.7-1.9-1-2.9h-1.4c-.7-1.5-1.5-3-2.3-4.6h-1.6c-.8-1.3-1.2-2.9-2.9-3.1-.3-.4-.6-.8-.9-1.4-.6.8-1 1.7-1.7 1.9-.9.4-.9 1.2-1.6 1.7-.9-.8-2-1-3.1-.3-.7.4-1.2.4-1.8 0-.5-.3-1.1-.4-1.6-.5-.7-.7-1.3-1.3-2-2.1v-1.1c-.4-.3-.9-.5-1.2-.8-.3-.2-.4-.6-.7-1-.6.8-.6.8-1.8 1.3-.6.3-1.2.7-1.7 1.4-.4.7-.9 1.4-1.6 1.8-.8.6-1.8 1-2.8.2-1 .4-2.2.5-3.1 1.3-.1.4-.3.8-.4 1.3h-1.6c-.5.4-.9.7-1.5 1.1v.3c-.7 1.2-1.4 2.3-2.4 3.2-1 .9-2 2-3.1 3h-.8l-.8.8c-.4-.2-.9-.5-1.4-.7-2 1.5-4.5 2.1-6.5 4.1.1 1.2-.5 2.2-1.9 3-1.2.7-2.5.5-3.8.6-.3.4-.5.8-.8 1.2-.3.3-.6.6-1 1.1-1.2-.5-2.1 1.2-3.6.7 0-.2-.1-.3-.1-.6-.7.2-1.4.5-2.1.7-.8.2-1.5.3-2.4.5-.4 1.6-1.8 2.4-2.6 3.3-.2.6-.4 1-.5 1.5-.9 0-1.7-.2-2.5.1-.7.2-1.4.4-2 .7-.7.3-1.4.5-2.2.8-.7-.6-1.1-1.3-1.4-2.2-.5-1.5-1.3-2.8-2.2-4 0 0 0-.1-.1-.2.2-.4.5-.9.7-1.3-.1-.2-.3-.5-.3-.7-1.1-.7-2.1-1.6-3.2-2.1-.9-.4-1.5-1.1-2.1-1.8-.4-.5-.4-1.3-.6-2.2-.7.3-1.4.6-2.3.9-.2-.3-.5-.7-.8-1.1-.1.1-.3.2-.5.4-.7-1-2-.9-2.9-1.6h-2.1c-.7.5-1.4 1.1-2.2 1.6-.5-.3-1-.6-1.5-.8h-2c-.5.2-.9.5-1.5.8-.3-.2-.6-.5-.9-.8h-3.9c-.2-.4-.4-.9-.5-1.3-.9-.6-1.7-1.1-2.6-1.8h-1c-.2.2-.4.4-.6.7-1.2 1.1-2.1 1.2-3.4.2-.8-.6-1.6-.7-2.5-.9-1-1.1-2.1-2-3.6-2.3-.3-.1-.5-.5-.7-.8-.2-.2-.4-.5-.5-.7h-2.9c-.2-.4-.4-.9-.6-1.4-.5-.2-1-.5-1.8-.9H1623.4c-.2.2-.4.5-.5.7-.5-.2-.8-.3-1.1-.4-.8.5-1.5.9-2 1.2-1.2-.1-1-.8-1.2-1.4-.2-.5-1-.8-.6-1.6-.4-.2-.6-.3-.9-.5-.3-.1-.5-.3-.8-.5l-.6.6V42l-2 2-2.2 2.2c-.1-.1-.2-.5-.4-.8-1.2.2-2.1.4-3 .5-.2-.8.2-1 .7-1.2 1-.5 1-.5 2.2 0 .2-.7.5-1.3 1.4-1.1.2-.5.4-1 .7-1.4.1-.2.6-.1 1-.2v-3.2c.8-.4 1.6-.9 2.3-1.3.8.5 2 .6 2.4 1.5.4.8 1.7.8 1.5 2.1l1.3-1.3c1.6 0 3.3.1 4.9 0 1.4-.2 2.6.7 3.9.8.5.9 1.8.5 2.2 1.5h1.4c.5.3.9.7 1.4.8.8.1 1 .6 1 1.2 1 .7 1.9 1.4 3.2 2.3.5.2 1.6.2 2.3 1.1h1.1c2.1-2.1 3.1-2 5 0h1.7c.2.4.4.9.6 1.5 1.4.3 2.9-.3 4.4.4 1.4-.7 2.9-.6 4.2.5 1-.9 1.9-1.7 2.6-2.3 1.1.5 2 .9 3 1.4.2-.2.5-.4.8-.7.7 0 .8.6 1 1.1.9-.5 1.2.2 1.6.9.5-.2 1-.3 1.5-.5 1.5.4 2.3 1.3 2.1 3 .7.5 1.4 1.1 2.2 1.5.9.5 1.7 1.2 2.7 1.8.6.3.9 1.4 1.3 2.1-.3.4-.6.7-.9 1 0 .2 0 .3.1.4.6.4.7 1.1 1.1 1.7.4.7.5 1.5 1.5 1.7.3.1.4.6.7 1 1.3-.4 2.7-.9 4.3-1.4.9-1.1 2.5-2.1 3.2-4 1.9-.6 3.9-1.2 6-1.9.4.1.9.3 1.5.3.5 0 1-.3 1.7-.5.3-.6.7-1.2 1.1-2 .3 0 .7-.1 1-.2l.7-.7h1.2l.7.7c.4-.3.8-.5 1.2-.7.2-.8.4-1.4.5-2.1 1.9-1.2 3.5-2.9 5.6-3.5.1-.7.1-1.1.3-1.6.1-.2.2-.5.3-.7 1 .7 1.7 1.1 2.4 1.6 2-.6 3.2-2.3 4.6-3.7.4-.3.4-1 .7-1.4.3-.4.7-.7 1-1.1v-.8l1.3-1.3h1.4l3-2.1c.1-.1.3-.2.5-.2.9.1 1.5-.4 2.3-.8.3.3.7.6 1 .9 1.2-.7 1.8-1.8 2.2-2.9 1.4-.6 2.5-1.5 3.3-2.9z"/>
  </g>
</svg>
